<svg width="58" height="32" viewBox="0 0 58 32" fill="none" xmlns="http://www.w3.org/2000/svg">
<rect width="58" height="32" rx="16" fill="#FDC102"/>
<path d="M15.5 8.5L17.8175 13.195L23 13.9525L19.25 17.605L20.135 22.765L15.5 20.3275L10.865 22.765L11.75 17.605L8 13.9525L13.1825 13.195L15.5 8.5Z" fill="white"/>
<path d="M37.1328 17.6719V18.8594H28.9141V18.0078L34.0078 10.125H35.1875L33.9219 12.4062L30.5547 17.6719H37.1328ZM35.5469 10.125V21.5H34.1016V10.125H35.5469ZM38.625 20.7344C38.625 20.4896 38.7005 20.2839 38.8516 20.1172C39.0078 19.9453 39.2318 19.8594 39.5234 19.8594C39.8151 19.8594 40.0365 19.9453 40.1875 20.1172C40.3438 20.2839 40.4219 20.4896 40.4219 20.7344C40.4219 20.974 40.3438 21.1771 40.1875 21.3438C40.0365 21.5104 39.8151 21.5938 39.5234 21.5938C39.2318 21.5938 39.0078 21.5104 38.8516 21.3438C38.7005 21.1771 38.625 20.974 38.625 20.7344ZM44.1016 20.2891H44.25C45.0833 20.2891 45.7604 20.1719 46.2812 19.9375C46.8021 19.7031 47.2031 19.388 47.4844 18.9922C47.7656 18.5964 47.9583 18.151 48.0625 17.6562C48.1667 17.1562 48.2188 16.6432 48.2188 16.1172V14.375C48.2188 13.8594 48.1589 13.401 48.0391 13C47.9245 12.599 47.763 12.263 47.5547 11.9922C47.3516 11.7214 47.1198 11.5156 46.8594 11.375C46.599 11.2344 46.3229 11.1641 46.0312 11.1641C45.6979 11.1641 45.3984 11.2318 45.1328 11.3672C44.8724 11.4974 44.651 11.6823 44.4688 11.9219C44.2917 12.1615 44.1562 12.4427 44.0625 12.7656C43.9688 13.0885 43.9219 13.4401 43.9219 13.8203C43.9219 14.1589 43.9635 14.487 44.0469 14.8047C44.1302 15.1224 44.2578 15.4089 44.4297 15.6641C44.6016 15.9193 44.8151 16.1224 45.0703 16.2734C45.3307 16.4193 45.6354 16.4922 45.9844 16.4922C46.3073 16.4922 46.6094 16.4297 46.8906 16.3047C47.1771 16.1745 47.4297 16 47.6484 15.7812C47.8724 15.5573 48.0495 15.3047 48.1797 15.0234C48.3151 14.7422 48.3932 14.4479 48.4141 14.1406H49.1016C49.1016 14.5729 49.0156 15 48.8438 15.4219C48.6771 15.8385 48.4427 16.2188 48.1406 16.5625C47.8385 16.9062 47.4844 17.1823 47.0781 17.3906C46.6719 17.5938 46.2292 17.6953 45.75 17.6953C45.1875 17.6953 44.7005 17.5859 44.2891 17.3672C43.8776 17.1484 43.5391 16.8568 43.2734 16.4922C43.013 16.1276 42.8177 15.7214 42.6875 15.2734C42.5625 14.8203 42.5 14.362 42.5 13.8984C42.5 13.3568 42.5755 12.849 42.7266 12.375C42.8776 11.901 43.1016 11.4844 43.3984 11.125C43.6953 10.7604 44.0625 10.4766 44.5 10.2734C44.9427 10.0703 45.4531 9.96875 46.0312 9.96875C46.6823 9.96875 47.237 10.099 47.6953 10.3594C48.1536 10.6198 48.526 10.9688 48.8125 11.4062C49.1042 11.8438 49.3177 12.3359 49.4531 12.8828C49.5885 13.4297 49.6562 13.9922 49.6562 14.5703V15.0938C49.6562 15.6823 49.6172 16.2812 49.5391 16.8906C49.4661 17.4948 49.3229 18.0729 49.1094 18.625C48.901 19.1771 48.5964 19.6719 48.1953 20.1094C47.7943 20.5417 47.2708 20.8854 46.625 21.1406C45.9844 21.3906 45.1927 21.5156 44.25 21.5156H44.1016V20.2891Z" fill="white"/>
</svg>
