<svg width="105" height="32" viewBox="0 0 105 32" fill="none" xmlns="http://www.w3.org/2000/svg">
<rect width="105" height="32" rx="4" fill="#0E0E0F"/>
<g clip-path="url(#clip0_47_1118)">
<path d="M12.4493 15.5347L4.0752 24.3082C4.16924 24.6414 4.33823 24.9488 4.56925 25.2067C4.80028 25.4647 5.08723 25.6664 5.40816 25.7964C5.72908 25.9265 6.0755 25.9814 6.42092 25.9571C6.76634 25.9327 7.10162 25.8297 7.40113 25.6559L16.8235 20.2896L12.4493 15.5347Z" fill="#EA4335"/>
<path d="M20.9168 14.0433L16.8423 11.7095L12.2559 15.7342L16.8609 20.277L20.9045 17.9681C21.2627 17.7806 21.5627 17.4985 21.7721 17.1526C21.9814 16.8067 22.0921 16.41 22.0921 16.0057C22.0921 15.6013 21.9814 15.2047 21.7721 14.8588C21.5627 14.5129 21.2627 14.2308 20.9045 14.0433H20.917L20.9168 14.0433Z" fill="#FBBC04"/>
<path d="M4.07493 7.65991C4.02432 7.84704 3.99912 8.04013 4.00002 8.23398V23.7341C4.00055 23.9279 4.02572 24.1208 4.07493 24.3083L12.7361 15.7594L4.07493 7.65991Z" fill="#4285F4"/>
<path d="M12.5117 15.984L16.8423 11.7096L7.43237 6.31824C7.07833 6.11089 6.67566 6.00109 6.26537 6C5.24721 5.99803 4.35209 6.67379 4.0752 7.65364L12.5117 15.984Z" fill="#34A853"/>
</g>
<path d="M35.0791 16.0439V19.6875C34.9561 19.8698 34.7601 20.0749 34.4912 20.3027C34.2223 20.526 33.8509 20.722 33.377 20.8906C32.9076 21.0547 32.3014 21.1367 31.5586 21.1367C30.9525 21.1367 30.3942 21.0319 29.8838 20.8223C29.3779 20.6081 28.9382 20.2982 28.5645 19.8926C28.1953 19.4824 27.9082 18.9857 27.7031 18.4023C27.5026 17.8145 27.4023 17.1491 27.4023 16.4062V15.6338C27.4023 14.891 27.4889 14.2279 27.6621 13.6445C27.8398 13.0612 28.0996 12.5667 28.4414 12.1611C28.7832 11.751 29.2025 11.4411 29.6992 11.2314C30.196 11.0173 30.7656 10.9102 31.4082 10.9102C32.1693 10.9102 32.805 11.0423 33.3154 11.3066C33.8304 11.5664 34.2314 11.9264 34.5186 12.3867C34.8102 12.847 34.9971 13.3711 35.0791 13.959H33.7598C33.7005 13.599 33.582 13.2708 33.4043 12.9746C33.2311 12.6784 32.9827 12.4414 32.6592 12.2637C32.3356 12.0814 31.9186 11.9902 31.4082 11.9902C30.9479 11.9902 30.5492 12.0745 30.2119 12.2432C29.8747 12.4118 29.5967 12.6533 29.3779 12.9678C29.1592 13.2822 28.9951 13.6628 28.8857 14.1094C28.7809 14.556 28.7285 15.0596 28.7285 15.6201V16.4062C28.7285 16.9805 28.7946 17.4932 28.9268 17.9443C29.0635 18.3955 29.2572 18.7806 29.5078 19.0996C29.7585 19.4141 30.057 19.6533 30.4033 19.8174C30.7542 19.9814 31.1416 20.0635 31.5654 20.0635C32.0348 20.0635 32.4154 20.0247 32.707 19.9473C32.9987 19.8652 33.2266 19.7695 33.3906 19.6602C33.5547 19.5462 33.68 19.4391 33.7666 19.3389V17.1104H31.4629V16.0439H35.0791ZM36.7402 17.3838V17.2266C36.7402 16.6934 36.8177 16.1989 36.9727 15.7432C37.1276 15.2829 37.3509 14.8841 37.6426 14.5469C37.9342 14.2051 38.2874 13.9408 38.7021 13.7539C39.1169 13.5625 39.5817 13.4668 40.0967 13.4668C40.6162 13.4668 41.0833 13.5625 41.498 13.7539C41.9173 13.9408 42.2728 14.2051 42.5645 14.5469C42.8607 14.8841 43.0863 15.2829 43.2412 15.7432C43.3962 16.1989 43.4736 16.6934 43.4736 17.2266V17.3838C43.4736 17.917 43.3962 18.4115 43.2412 18.8672C43.0863 19.3229 42.8607 19.7217 42.5645 20.0635C42.2728 20.4007 41.9196 20.665 41.5049 20.8564C41.0947 21.0433 40.6299 21.1367 40.1104 21.1367C39.5908 21.1367 39.1237 21.0433 38.709 20.8564C38.2943 20.665 37.9388 20.4007 37.6426 20.0635C37.3509 19.7217 37.1276 19.3229 36.9727 18.8672C36.8177 18.4115 36.7402 17.917 36.7402 17.3838ZM38.0049 17.2266V17.3838C38.0049 17.7529 38.0482 18.1016 38.1348 18.4297C38.2214 18.7533 38.3512 19.0404 38.5244 19.291C38.7021 19.5417 38.9232 19.7399 39.1875 19.8857C39.4518 20.027 39.7594 20.0977 40.1104 20.0977C40.4567 20.0977 40.7598 20.027 41.0195 19.8857C41.2839 19.7399 41.5026 19.5417 41.6758 19.291C41.849 19.0404 41.9788 18.7533 42.0654 18.4297C42.1566 18.1016 42.2021 17.7529 42.2021 17.3838V17.2266C42.2021 16.862 42.1566 16.5179 42.0654 16.1943C41.9788 15.8662 41.8467 15.5768 41.6689 15.3262C41.4958 15.071 41.277 14.8704 41.0127 14.7246C40.7529 14.5788 40.4476 14.5059 40.0967 14.5059C39.7503 14.5059 39.445 14.5788 39.1807 14.7246C38.9209 14.8704 38.7021 15.071 38.5244 15.3262C38.3512 15.5768 38.2214 15.8662 38.1348 16.1943C38.0482 16.5179 38.0049 16.862 38.0049 17.2266ZM44.7246 17.3838V17.2266C44.7246 16.6934 44.8021 16.1989 44.957 15.7432C45.112 15.2829 45.3353 14.8841 45.627 14.5469C45.9186 14.2051 46.2718 13.9408 46.6865 13.7539C47.1012 13.5625 47.5661 13.4668 48.0811 13.4668C48.6006 13.4668 49.0677 13.5625 49.4824 13.7539C49.9017 13.9408 50.2572 14.2051 50.5488 14.5469C50.8451 14.8841 51.0706 15.2829 51.2256 15.7432C51.3805 16.1989 51.458 16.6934 51.458 17.2266V17.3838C51.458 17.917 51.3805 18.4115 51.2256 18.8672C51.0706 19.3229 50.8451 19.7217 50.5488 20.0635C50.2572 20.4007 49.904 20.665 49.4893 20.8564C49.0791 21.0433 48.6143 21.1367 48.0947 21.1367C47.5752 21.1367 47.1081 21.0433 46.6934 20.8564C46.2786 20.665 45.9232 20.4007 45.627 20.0635C45.3353 19.7217 45.112 19.3229 44.957 18.8672C44.8021 18.4115 44.7246 17.917 44.7246 17.3838ZM45.9893 17.2266V17.3838C45.9893 17.7529 46.0326 18.1016 46.1191 18.4297C46.2057 18.7533 46.3356 19.0404 46.5088 19.291C46.6865 19.5417 46.9076 19.7399 47.1719 19.8857C47.4362 20.027 47.7438 20.0977 48.0947 20.0977C48.4411 20.0977 48.7441 20.027 49.0039 19.8857C49.2682 19.7399 49.487 19.5417 49.6602 19.291C49.8333 19.0404 49.9632 18.7533 50.0498 18.4297C50.141 18.1016 50.1865 17.7529 50.1865 17.3838V17.2266C50.1865 16.862 50.141 16.5179 50.0498 16.1943C49.9632 15.8662 49.8311 15.5768 49.6533 15.3262C49.4801 15.071 49.2614 14.8704 48.9971 14.7246C48.7373 14.5788 48.432 14.5059 48.0811 14.5059C47.7347 14.5059 47.4294 14.5788 47.165 14.7246C46.9053 14.8704 46.6865 15.071 46.5088 15.3262C46.3356 15.5768 46.2057 15.8662 46.1191 16.1943C46.0326 16.5179 45.9893 16.862 45.9893 17.2266ZM57.8359 13.6035H58.9844V20.8428C58.9844 21.4945 58.8522 22.0505 58.5879 22.5107C58.3236 22.971 57.9544 23.3197 57.4805 23.5566C57.0111 23.7982 56.4688 23.9189 55.8535 23.9189C55.5983 23.9189 55.2975 23.8779 54.9512 23.7959C54.6094 23.7184 54.2721 23.584 53.9395 23.3926C53.6113 23.2057 53.3356 22.9528 53.1123 22.6338L53.7754 21.8818C54.0853 22.2555 54.4089 22.5153 54.7461 22.6611C55.0879 22.807 55.4251 22.8799 55.7578 22.8799C56.1589 22.8799 56.5052 22.8047 56.7969 22.6543C57.0885 22.5039 57.3141 22.2806 57.4736 21.9844C57.6377 21.6927 57.7197 21.3327 57.7197 20.9043V15.2305L57.8359 13.6035ZM52.7432 17.3838V17.2402C52.7432 16.6751 52.8092 16.1624 52.9414 15.7021C53.0781 15.2373 53.2718 14.8385 53.5225 14.5059C53.7777 14.1732 54.0853 13.918 54.4453 13.7402C54.8053 13.5579 55.2109 13.4668 55.6621 13.4668C56.127 13.4668 56.5326 13.5488 56.8789 13.7129C57.2298 13.8724 57.526 14.1071 57.7676 14.417C58.0137 14.7223 58.2074 15.0915 58.3486 15.5244C58.4899 15.9574 58.5879 16.4473 58.6426 16.9941V17.623C58.5924 18.1654 58.4945 18.653 58.3486 19.0859C58.2074 19.5189 58.0137 19.888 57.7676 20.1934C57.526 20.4987 57.2298 20.7334 56.8789 20.8975C56.528 21.057 56.1178 21.1367 55.6484 21.1367C55.2064 21.1367 54.8053 21.0433 54.4453 20.8564C54.0898 20.6696 53.7845 20.4076 53.5293 20.0703C53.2741 19.7331 53.0781 19.3366 52.9414 18.8809C52.8092 18.4206 52.7432 17.9215 52.7432 17.3838ZM54.0078 17.2402V17.3838C54.0078 17.7529 54.0443 18.0993 54.1172 18.4229C54.1947 18.7464 54.3109 19.0312 54.4658 19.2773C54.6253 19.5234 54.8281 19.7171 55.0742 19.8584C55.3203 19.9951 55.6143 20.0635 55.9561 20.0635C56.3753 20.0635 56.7217 19.9746 56.9951 19.7969C57.2686 19.6191 57.485 19.3844 57.6445 19.0928C57.8086 18.8011 57.9362 18.4844 58.0273 18.1426V16.4951C57.9772 16.2445 57.8997 16.0029 57.7949 15.7705C57.6947 15.5335 57.5625 15.3239 57.3984 15.1416C57.2389 14.9548 57.0407 14.8066 56.8037 14.6973C56.5667 14.5879 56.2887 14.5332 55.9697 14.5332C55.6234 14.5332 55.3249 14.6061 55.0742 14.752C54.8281 14.8932 54.6253 15.0892 54.4658 15.3398C54.3109 15.5859 54.1947 15.873 54.1172 16.2012C54.0443 16.5247 54.0078 16.8711 54.0078 17.2402ZM62.2793 10.5V21H61.0078V10.5H62.2793ZM67.3789 21.1367C66.8639 21.1367 66.3968 21.0501 65.9775 20.877C65.5628 20.6992 65.2051 20.4508 64.9043 20.1318C64.6081 19.8128 64.3802 19.4346 64.2207 18.9971C64.0612 18.5596 63.9814 18.0811 63.9814 17.5615V17.2744C63.9814 16.6729 64.0703 16.1374 64.248 15.668C64.4258 15.194 64.6673 14.793 64.9727 14.4648C65.278 14.1367 65.6243 13.8883 66.0117 13.7197C66.3991 13.5511 66.8001 13.4668 67.2148 13.4668C67.7435 13.4668 68.1992 13.5579 68.582 13.7402C68.9694 13.9225 69.2861 14.1777 69.5322 14.5059C69.7783 14.8294 69.9606 15.2122 70.0791 15.6543C70.1976 16.0918 70.2568 16.5703 70.2568 17.0898V17.6572H64.7334V16.625H68.9922V16.5293C68.974 16.2012 68.9056 15.8822 68.7871 15.5723C68.6732 15.2624 68.4909 15.0072 68.2402 14.8066C67.9896 14.6061 67.6478 14.5059 67.2148 14.5059C66.9277 14.5059 66.6634 14.5674 66.4219 14.6904C66.1803 14.8089 65.973 14.9867 65.7998 15.2236C65.6266 15.4606 65.4922 15.75 65.3965 16.0918C65.3008 16.4336 65.2529 16.8278 65.2529 17.2744V17.5615C65.2529 17.9124 65.3008 18.2428 65.3965 18.5527C65.4967 18.8581 65.6403 19.127 65.8271 19.3594C66.0186 19.5918 66.2487 19.7741 66.5176 19.9062C66.791 20.0384 67.1009 20.1045 67.4473 20.1045C67.8939 20.1045 68.2721 20.0133 68.582 19.8311C68.8919 19.6488 69.1631 19.4049 69.3955 19.0996L70.1611 19.708C70.0016 19.9495 69.7988 20.1797 69.5527 20.3984C69.3066 20.6172 69.0036 20.7949 68.6436 20.9316C68.2881 21.0684 67.8665 21.1367 67.3789 21.1367ZM79.0684 17.0967H76.4092V16.0234H79.0684C79.5833 16.0234 80.0003 15.9414 80.3193 15.7773C80.6383 15.6133 80.8708 15.3854 81.0166 15.0938C81.167 14.8021 81.2422 14.4694 81.2422 14.0957C81.2422 13.7539 81.167 13.4326 81.0166 13.1318C80.8708 12.8311 80.6383 12.5895 80.3193 12.4072C80.0003 12.2204 79.5833 12.127 79.0684 12.127H76.7168V21H75.3975V11.0469H79.0684C79.8203 11.0469 80.4561 11.1768 80.9756 11.4365C81.4951 11.6963 81.8893 12.0563 82.1582 12.5166C82.4271 12.9723 82.5615 13.4941 82.5615 14.082C82.5615 14.7201 82.4271 15.2646 82.1582 15.7158C81.8893 16.167 81.4951 16.5111 80.9756 16.748C80.4561 16.9805 79.8203 17.0967 79.0684 17.0967ZM85.4121 10.5V21H84.1406V10.5H85.4121ZM91.8037 19.7354V15.9277C91.8037 15.6361 91.7445 15.3831 91.626 15.1689C91.512 14.9502 91.3389 14.7816 91.1064 14.6631C90.874 14.5446 90.5869 14.4854 90.2451 14.4854C89.9261 14.4854 89.6458 14.54 89.4043 14.6494C89.1673 14.7588 88.9805 14.9023 88.8438 15.0801C88.7116 15.2578 88.6455 15.4492 88.6455 15.6543H87.3809C87.3809 15.39 87.4492 15.1279 87.5859 14.8682C87.7227 14.6084 87.9186 14.3737 88.1738 14.1641C88.4336 13.9499 88.7435 13.7812 89.1035 13.6582C89.4681 13.5306 89.8737 13.4668 90.3203 13.4668C90.8581 13.4668 91.332 13.5579 91.7422 13.7402C92.1569 13.9225 92.4805 14.1982 92.7129 14.5674C92.9499 14.932 93.0684 15.39 93.0684 15.9414V19.3867C93.0684 19.6328 93.0889 19.8949 93.1299 20.1729C93.1755 20.4508 93.2415 20.6901 93.3281 20.8906V21H92.0088C91.945 20.8542 91.8949 20.6605 91.8584 20.4189C91.8219 20.1729 91.8037 19.945 91.8037 19.7354ZM92.0225 16.5156L92.0361 17.4043H90.7578C90.3978 17.4043 90.0765 17.4339 89.7939 17.4932C89.5114 17.5479 89.2744 17.6322 89.083 17.7461C88.8916 17.86 88.7458 18.0036 88.6455 18.1768C88.5452 18.3454 88.4951 18.5436 88.4951 18.7715C88.4951 19.0039 88.5475 19.2158 88.6523 19.4072C88.7572 19.5986 88.9144 19.7513 89.124 19.8652C89.3382 19.9746 89.6003 20.0293 89.9102 20.0293C90.2975 20.0293 90.6393 19.9473 90.9355 19.7832C91.2318 19.6191 91.4665 19.4186 91.6396 19.1816C91.8174 18.9447 91.9131 18.7145 91.9268 18.4912L92.4668 19.0996C92.4349 19.291 92.3483 19.5029 92.207 19.7354C92.0658 19.9678 91.8766 20.1911 91.6396 20.4053C91.4072 20.6149 91.1292 20.7904 90.8057 20.9316C90.4867 21.0684 90.1266 21.1367 89.7256 21.1367C89.2243 21.1367 88.7845 21.0387 88.4062 20.8428C88.0326 20.6468 87.7409 20.3848 87.5312 20.0566C87.3262 19.724 87.2236 19.3525 87.2236 18.9424C87.2236 18.5459 87.3011 18.1973 87.4561 17.8965C87.611 17.5911 87.8343 17.3382 88.126 17.1377C88.4176 16.9326 88.7686 16.7777 89.1787 16.6729C89.5889 16.568 90.0469 16.5156 90.5527 16.5156H92.0225ZM97.0264 20.2344L99.084 13.6035H100.438L97.4707 22.1416C97.4023 22.3239 97.3112 22.5199 97.1973 22.7295C97.0879 22.9437 96.9466 23.1465 96.7734 23.3379C96.6003 23.5293 96.3906 23.6842 96.1445 23.8027C95.903 23.9258 95.6136 23.9873 95.2764 23.9873C95.1761 23.9873 95.0485 23.9736 94.8936 23.9463C94.7386 23.9189 94.6292 23.8962 94.5654 23.8779L94.5586 22.8525C94.5951 22.8571 94.652 22.8617 94.7295 22.8662C94.8115 22.8753 94.8685 22.8799 94.9004 22.8799C95.1875 22.8799 95.4313 22.8411 95.6318 22.7637C95.8324 22.6908 96.001 22.5654 96.1377 22.3877C96.279 22.2145 96.3997 21.9753 96.5 21.6699L97.0264 20.2344ZM95.5156 13.6035L97.4365 19.3457L97.7646 20.6787L96.8555 21.1436L94.1348 13.6035H95.5156Z" fill="white"/>
<defs>
<clipPath id="clip0_47_1118">
<rect width="18.0919" height="20" fill="white" transform="translate(4 6)"/>
</clipPath>
</defs>
</svg>
