<svg width="101" height="100" viewBox="0 0 101 100" fill="none" xmlns="http://www.w3.org/2000/svg">
<rect x="0.5" width="100" height="100" rx="6" fill="white"/>
<path d="M14.3095 10C12.2056 10 10.5 11.7056 10.5 13.8095H14.3095V10Z" fill="#FB6A02"/>
<path d="M18.119 10H14.3095V13.8095H18.119V10Z" fill="#FB6A02"/>
<path d="M21.9286 10H18.119V13.8095H21.9286V10Z" fill="#FB6A02"/>
<path d="M25.7381 10H21.9286V13.8095H25.7381V10Z" fill="#FB6A02"/>
<path d="M29.5476 10H25.7381V13.8095H29.5476V10Z" fill="#FB6A02"/>
<path d="M33.3571 10H29.5476V13.8095H33.3571V10Z" fill="#FB6A02"/>
<path d="M37.1667 13.8095C37.1667 11.7056 35.4611 10 33.3571 10V13.8095H37.1667Z" fill="#FB6A02"/>
<path d="M44.7857 10H42.881C41.829 10 40.9762 10.8528 40.9762 11.9048C40.9762 12.9567 41.829 13.8095 42.881 13.8095H44.7857V10Z" fill="#FB6A02"/>
<path d="M48.5952 11.9048C48.5952 10.8528 47.7424 10 46.6905 10H44.7857V13.8095H46.6905C47.7424 13.8095 48.5952 12.9567 48.5952 11.9048Z" fill="#FB6A02"/>
<path d="M56.2143 10C54.1103 10 52.4048 11.7056 52.4048 13.8095H56.2143V10Z" fill="#FB6A02"/>
<path d="M60.0238 11.9048C60.0238 10.8528 59.171 10 58.119 10H56.2143V13.8095H58.119C59.171 13.8095 60.0238 12.9567 60.0238 11.9048Z" fill="#FB6A02"/>
<path d="M67.6429 10C65.5389 10 63.8333 11.7056 63.8333 13.8095H67.6429V10Z" fill="#FB6A02"/>
<path d="M71.4524 10H67.6429V13.8095H71.4524V10Z" fill="#FB6A02"/>
<path d="M75.2619 10H71.4524V13.8095H75.2619V10Z" fill="#FB6A02"/>
<path d="M79.0714 10H75.2619V13.8095H79.0714V10Z" fill="#FB6A02"/>
<path d="M82.881 10H79.0714V13.8095H82.881V10Z" fill="#FB6A02"/>
<path d="M86.6905 10H82.881V13.8095H86.6905V10Z" fill="#FB6A02"/>
<path d="M90.5 13.8095C90.5 11.7056 88.7944 10 86.6905 10V13.8095H90.5Z" fill="#FB6A02"/>
<path d="M14.3095 13.8095H10.5V17.619H14.3095V13.8095Z" fill="#FB6A02"/>
<path d="M37.1667 13.8095H33.3571V17.619H37.1667V13.8095Z" fill="#FB6A02"/>
<path d="M56.2143 13.8095H52.4048V17.619H56.2143V13.8095Z" fill="#FB6A02"/>
<path d="M67.6429 13.8095H63.8333V17.619H67.6429V13.8095Z" fill="#FB6A02"/>
<path d="M90.5 13.8095H86.6905V17.619H90.5V13.8095Z" fill="#FB6A02"/>
<path d="M14.3095 17.619H10.5V21.4286H14.3095V17.619Z" fill="#FB6A02"/>
<path d="M21.9286 17.619C19.8246 17.619 18.119 19.3246 18.119 21.4286H21.9286V17.619Z" fill="#FB6A02"/>
<path d="M25.7381 17.619H21.9286V21.4286H25.7381V17.619Z" fill="#FB6A02"/>
<path d="M29.5476 21.4286C29.5476 19.3246 27.842 17.619 25.7381 17.619V21.4286H29.5476Z" fill="#FB6A02"/>
<path d="M37.1667 17.619H33.3571V21.4286H37.1667V17.619Z" fill="#FB6A02"/>
<path d="M44.7857 17.619C42.6818 17.619 40.9762 19.3246 40.9762 21.4286H44.7857V17.619Z" fill="#FB6A02"/>
<path d="M48.5952 17.619H44.7857V21.4286H48.5952V17.619Z" fill="#FB6A02"/>
<path d="M52.4048 17.619H48.5952V21.4286H52.4048V17.619Z" fill="#FB6A02"/>
<path d="M60.0238 19.5238C60.0238 18.4718 59.171 17.619 58.119 17.619H56.2143V21.4286H58.119C59.171 21.4286 60.0238 20.5758 60.0238 19.5238Z" fill="#FB6A02"/>
<path d="M67.6429 17.619H63.8333V21.4286H67.6429V17.619Z" fill="#FB6A02"/>
<path d="M75.2619 17.619C73.158 17.619 71.4524 19.3246 71.4524 21.4286H75.2619V17.619Z" fill="#FB6A02"/>
<path d="M79.0714 17.619H75.2619V21.4286H79.0714V17.619Z" fill="#FB6A02"/>
<path d="M82.881 21.4286C82.881 19.3246 81.1754 17.619 79.0714 17.619V21.4286H82.881Z" fill="#FB6A02"/>
<path d="M90.5 17.619H86.6905V21.4286H90.5V17.619Z" fill="#FB6A02"/>
<path d="M14.3095 21.4286H10.5V25.2381H14.3095V21.4286Z" fill="#FB6A02"/>
<path d="M21.9286 21.4286H18.119V25.2381H21.9286V21.4286Z" fill="#FB6A02"/>
<path d="M25.7381 21.4286H21.9286V25.2381H25.7381V21.4286Z" fill="#FB6A02"/>
<path d="M29.5476 21.4286H25.7381V25.2381H29.5476V21.4286Z" fill="#FB6A02"/>
<path d="M37.1667 21.4286H33.3571V25.2381H37.1667V21.4286Z" fill="#FB6A02"/>
<path d="M44.7857 21.4286H40.9762V25.2381H44.7857V21.4286Z" fill="#FB6A02"/>
<path d="M48.5952 21.4286H44.7857V25.2381H48.5952V21.4286Z" fill="#FB6A02"/>
<path d="M52.4048 21.4286H48.5952V25.2381H52.4048V21.4286Z" fill="#FB6A02"/>
<path d="M56.2143 21.4286H52.4048V25.2381H56.2143V21.4286Z" fill="#FB6A02"/>
<path d="M67.6429 21.4286H63.8333V25.2381H67.6429V21.4286Z" fill="#FB6A02"/>
<path d="M75.2619 21.4286H71.4524V25.2381H75.2619V21.4286Z" fill="#FB6A02"/>
<path d="M79.0714 21.4286H75.2619V25.2381H79.0714V21.4286Z" fill="#FB6A02"/>
<path d="M82.881 21.4286H79.0714V25.2381H82.881V21.4286Z" fill="#FB6A02"/>
<path d="M90.5 21.4286H86.6905V25.2381H90.5V21.4286Z" fill="#FB6A02"/>
<path d="M14.3095 25.2381H10.5V29.0476H14.3095V25.2381Z" fill="#FB6A02"/>
<path d="M21.9286 25.2381H18.119C18.119 27.342 19.8246 29.0476 21.9286 29.0476V25.2381Z" fill="#FB6A02"/>
<path d="M25.7381 25.2381H21.9286V29.0476H25.7381V25.2381Z" fill="#FB6A02"/>
<path d="M29.5476 25.2381H25.7381V29.0476C27.842 29.0476 29.5476 27.342 29.5476 25.2381Z" fill="#FB6A02"/>
<path d="M37.1667 25.2381H33.3571V29.0476H37.1667V25.2381Z" fill="#FB6A02"/>
<path d="M44.7857 25.2381H40.9762V29.0476H44.7857V25.2381Z" fill="#FB6A02"/>
<path d="M48.5952 25.2381H44.7857V29.0476H48.5952V25.2381Z" fill="#FB6A02"/>
<path d="M56.2143 25.2381H52.4048V29.0476H56.2143V25.2381Z" fill="#FB6A02"/>
<path d="M67.6429 25.2381H63.8333V29.0476H67.6429V25.2381Z" fill="#FB6A02"/>
<path d="M75.2619 25.2381H71.4524C71.4524 27.342 73.158 29.0476 75.2619 29.0476V25.2381Z" fill="#FB6A02"/>
<path d="M79.0714 25.2381H75.2619V29.0476H79.0714V25.2381Z" fill="#FB6A02"/>
<path d="M82.881 25.2381H79.0714V29.0476C81.1754 29.0476 82.881 27.342 82.881 25.2381Z" fill="#FB6A02"/>
<path d="M90.5 25.2381H86.6905V29.0476H90.5V25.2381Z" fill="#FB6A02"/>
<path d="M14.3095 29.0476H10.5V32.8571H14.3095V29.0476Z" fill="#FB6A02"/>
<path d="M37.1667 29.0476H33.3571V32.8571H37.1667V29.0476Z" fill="#FB6A02"/>
<path d="M44.7857 29.0476H40.9762V32.8571H44.7857V29.0476Z" fill="#FB6A02"/>
<path d="M48.5952 29.0476H44.7857V32.8571H48.5952V29.0476Z" fill="#FB6A02"/>
<path d="M52.4048 29.0476H48.5952V32.8571H52.4048V29.0476Z" fill="#FB6A02"/>
<path d="M60.0238 32.8571C60.0238 30.7532 58.3182 29.0476 56.2143 29.0476V32.8571H60.0238Z" fill="#FB6A02"/>
<path d="M67.6429 29.0476H63.8333V32.8571H67.6429V29.0476Z" fill="#FB6A02"/>
<path d="M90.5 29.0476H86.6905V32.8571H90.5V29.0476Z" fill="#FB6A02"/>
<path d="M14.3095 32.8571H10.5C10.5 34.9611 12.2056 36.6667 14.3095 36.6667V32.8571Z" fill="#FB6A02"/>
<path d="M18.119 32.8571H14.3095V36.6667H18.119V32.8571Z" fill="#FB6A02"/>
<path d="M21.9286 32.8571H18.119V36.6667H21.9286V32.8571Z" fill="#FB6A02"/>
<path d="M25.7381 32.8571H21.9286V36.6667H25.7381V32.8571Z" fill="#FB6A02"/>
<path d="M29.5476 32.8571H25.7381V36.6667H29.5476V32.8571Z" fill="#FB6A02"/>
<path d="M33.3571 32.8571H29.5476V36.6667H33.3571V32.8571Z" fill="#FB6A02"/>
<path d="M37.1667 32.8571H33.3571V36.6667C35.4611 36.6667 37.1667 34.9611 37.1667 32.8571Z" fill="#FB6A02"/>
<path d="M44.7857 32.8571H40.9762C40.9762 34.9611 42.6818 36.6667 44.7857 36.6667V32.8571Z" fill="#FB6A02"/>
<path d="M52.4048 32.8571H48.5952L48.5952 36.6667H52.4048V32.8571Z" fill="#FB6A02"/>
<path d="M60.0238 32.8571H56.2143V36.6667C58.3182 36.6667 60.0238 34.9611 60.0238 32.8571Z" fill="#FB6A02"/>
<path d="M67.6429 32.8571H63.8333C63.8333 34.9611 65.5389 36.6667 67.6429 36.6667V32.8571Z" fill="#FB6A02"/>
<path d="M71.4524 32.8571H67.6429V36.6667H71.4524V32.8571Z" fill="#FB6A02"/>
<path d="M75.2619 32.8571H71.4524V36.6667H75.2619V32.8571Z" fill="#FB6A02"/>
<path d="M79.0714 32.8571H75.2619V36.6667H79.0714V32.8571Z" fill="#FB6A02"/>
<path d="M82.881 32.8571H79.0714V36.6667H82.881V32.8571Z" fill="#FB6A02"/>
<path d="M86.6905 32.8571H82.881V36.6667H86.6905V32.8571Z" fill="#FB6A02"/>
<path d="M90.5 32.8571H86.6905V36.6667C88.7944 36.6667 90.5 34.9611 90.5 32.8571Z" fill="#FB6A02"/>
<path d="M48.5952 36.6667H44.7857C44.7857 38.7706 46.4913 40.4762 48.5952 40.4762L48.5952 36.6667Z" fill="#FB6A02"/>
<path d="M56.2143 36.6667H52.4048V40.4762H56.2143V36.6667Z" fill="#FB6A02"/>
<path d="M21.9286 40.4762C19.8246 40.4762 18.119 42.1818 18.119 44.2857H21.9286V40.4762Z" fill="#FB6A02"/>
<path d="M25.7381 40.4762H21.9286V44.2857H25.7381V40.4762Z" fill="#FB6A02"/>
<path d="M29.5476 40.4762H25.7381V44.2857H29.5476V40.4762Z" fill="#FB6A02"/>
<path d="M33.3571 40.4762H29.5476V44.2857H33.3571V40.4762Z" fill="#FB6A02"/>
<path d="M37.1667 40.4762H33.3571V44.2857H37.1667V40.4762Z" fill="#FB6A02"/>
<path d="M40.9762 44.2857C40.9762 42.1818 39.2706 40.4762 37.1667 40.4762V44.2857H40.9762Z" fill="#FB6A02"/>
<path d="M52.4048 40.4762H48.5952C48.5952 42.5801 50.3008 44.2857 52.4048 44.2857V40.4762Z" fill="#FB6A02"/>
<path d="M56.2143 40.4762H52.4048V44.2857H56.2143V40.4762Z" fill="#FB6A02"/>
<path d="M60.0238 40.4762L56.2143 40.4762V44.2857H60.0238V40.4762Z" fill="#FB6A02"/>
<path d="M63.8333 44.2857C63.8333 42.1818 62.1278 40.4762 60.0238 40.4762V44.2857H63.8333Z" fill="#FB6A02"/>
<path d="M71.4524 40.4762H69.5476C68.4956 40.4762 67.6429 41.329 67.6429 42.381C67.6429 43.4329 68.4956 44.2857 69.5476 44.2857H71.4524V40.4762Z" fill="#FB6A02"/>
<path d="M75.2619 40.4762H71.4524V44.2857H75.2619V40.4762Z" fill="#FB6A02"/>
<path d="M79.0714 40.4762H75.2619V44.2857H79.0714V40.4762Z" fill="#FB6A02"/>
<path d="M82.881 44.2857C82.881 42.1818 81.1754 40.4762 79.0714 40.4762V44.2857H82.881Z" fill="#FB6A02"/>
<path d="M90.5 42.381C90.5 41.329 89.6472 40.4762 88.5952 40.4762C87.5433 40.4762 86.6905 41.329 86.6905 42.381C86.6905 43.4329 87.5433 44.2857 88.5952 44.2857C89.6472 44.2857 90.5 43.4329 90.5 42.381Z" fill="#FB6A02"/>
<path d="M18.119 44.2857C16.0151 44.2857 14.3095 45.9913 14.3095 48.0952H18.119V44.2857Z" fill="#FB6A02"/>
<path d="M21.9286 44.2857H18.119V48.0952H21.9286V44.2857Z" fill="#FB6A02"/>
<path d="M33.3571 44.2857H29.5476C29.5476 46.3897 31.2532 48.0952 33.3571 48.0952V44.2857Z" fill="#FB6A02"/>
<path d="M40.9762 44.2857H37.1667V48.0952H40.9762V44.2857Z" fill="#FB6A02"/>
<path d="M56.2143 44.2857H52.4048V48.0952H56.2143V44.2857Z" fill="#FB6A02"/>
<path d="M63.8333 44.2857H60.0238V48.0952H63.8333V44.2857Z" fill="#FB6A02"/>
<path d="M75.2619 44.2857H71.4524V46.1905C71.4524 47.2424 72.3052 48.0952 73.3571 48.0952C74.4091 48.0952 75.2619 47.2424 75.2619 46.1905V44.2857Z" fill="#FB6A02"/>
<path d="M82.881 44.2857H79.0714C79.0714 46.3896 80.777 48.0952 82.881 48.0952V44.2857Z" fill="#FB6A02"/>
<path d="M14.3095 48.0952L12.4048 48.0952C11.3528 48.0952 10.5 48.948 10.5 50C10.5 51.052 11.3528 51.9048 12.4048 51.9048C13.4567 51.9048 14.3095 51.052 14.3095 50V48.0952Z" fill="#FB6A02"/>
<path d="M25.7381 51.9048C25.7381 49.8008 24.0325 48.0952 21.9286 48.0952V51.9048H25.7381Z" fill="#FB6A02"/>
<path d="M37.1667 48.0952H33.3571C33.3571 50.1992 35.0627 51.9048 37.1667 51.9048V48.0952Z" fill="#FB6A02"/>
<path d="M44.7857 48.0952L40.9762 48.0952L40.9762 51.9048H44.7857V48.0952Z" fill="#FB6A02"/>
<path d="M48.5952 48.0952H44.7857V51.9048H48.5952V48.0952Z" fill="#FB6A02"/>
<path d="M52.4048 48.0952L48.5952 48.0952V51.9048H52.4048V48.0952Z" fill="#FB6A02"/>
<path d="M56.2143 48.0952H52.4048V51.9048H56.2143V48.0952Z" fill="#FB6A02"/>
<path d="M63.8333 48.0952H60.0238V51.9048H63.8333V48.0952Z" fill="#FB6A02"/>
<path d="M67.6429 51.9048C67.6429 49.8008 65.9373 48.0952 63.8333 48.0952V51.9048H67.6429Z" fill="#FB6A02"/>
<path d="M86.6905 48.0952L82.881 48.0952V51.9048H86.6905V48.0952Z" fill="#FB6A02"/>
<path d="M90.5 51.9048C90.5 49.8008 88.7944 48.0952 86.6905 48.0952V51.9048H90.5Z" fill="#FB6A02"/>
<path d="M21.9286 51.9048C19.8246 51.9048 18.119 53.6103 18.119 55.7143C20.223 55.7143 21.9286 54.0087 21.9286 51.9048Z" fill="#FB6A02"/>
<path d="M29.5476 55.7143C29.5476 53.6103 27.842 51.9048 25.7381 51.9048V55.7143H29.5476Z" fill="#FB6A02"/>
<path d="M40.9762 51.9048H37.1667V55.7143H40.9762L40.9762 51.9048Z" fill="#FB6A02"/>
<path d="M52.4048 51.9048H48.5952L48.5952 55.7143C50.6992 55.7143 52.4048 54.0087 52.4048 51.9048Z" fill="#FB6A02"/>
<path d="M60.0238 51.9048H56.2143C56.2143 54.0087 57.9199 55.7143 60.0238 55.7143V51.9048Z" fill="#FB6A02"/>
<path d="M63.8333 51.9048H60.0238V55.7143H63.8333V51.9048Z" fill="#FB6A02"/>
<path d="M71.4524 55.7143C71.4524 53.6103 69.7468 51.9048 67.6429 51.9048V55.7143H71.4524Z" fill="#FB6A02"/>
<path d="M82.881 51.9048C80.777 51.9048 79.0714 53.6103 79.0714 55.7143C81.1754 55.7143 82.881 54.0087 82.881 51.9048Z" fill="#FB6A02"/>
<path d="M90.5 51.9048H86.6905V53.8095C86.6905 54.8615 87.5433 55.7143 88.5952 55.7143C89.6472 55.7143 90.5 54.8615 90.5 53.8095V51.9048Z" fill="#FB6A02"/>
<path d="M14.3095 55.7143H12.4048C11.3528 55.7143 10.5 56.5671 10.5 57.619C10.5 58.671 11.3528 59.5238 12.4048 59.5238H14.3095V55.7143Z" fill="#FB6A02"/>
<path d="M18.119 55.7143H14.3095V59.5238C16.4135 59.5238 18.119 57.8182 18.119 55.7143Z" fill="#FB6A02"/>
<path d="M29.5476 55.7143H25.7381C25.7381 57.8182 27.4437 59.5238 29.5476 59.5238V55.7143Z" fill="#FB6A02"/>
<path d="M33.3571 55.7143H29.5476V59.5238H33.3571V55.7143Z" fill="#FB6A02"/>
<path d="M37.1667 55.7143H33.3571V59.5238H37.1667V55.7143Z" fill="#FB6A02"/>
<path d="M40.9762 55.7143H37.1667V59.5238H40.9762V55.7143Z" fill="#FB6A02"/>
<path d="M44.7857 55.7143H40.9762V59.5238H44.7857V55.7143Z" fill="#FB6A02"/>
<path d="M48.5952 55.7143H44.7857V59.5238H48.5952L48.5952 55.7143Z" fill="#FB6A02"/>
<path d="M63.8333 55.7143H60.0238V59.5238H63.8333V55.7143Z" fill="#FB6A02"/>
<path d="M67.6429 55.7143H63.8333V59.5238H67.6429V55.7143Z" fill="#FB6A02"/>
<path d="M71.4524 55.7143H67.6429V59.5238H71.4524V55.7143Z" fill="#FB6A02"/>
<path d="M75.2619 55.7143H71.4524V59.5238H75.2619V55.7143Z" fill="#FB6A02"/>
<path d="M79.0714 55.7143H75.2619V59.5238H79.0714V55.7143Z" fill="#FB6A02"/>
<path d="M52.4048 61.4286C52.4048 60.3766 51.552 59.5238 50.5 59.5238H48.5952L48.5952 61.4286C48.5952 62.4805 49.448 63.3333 50.5 63.3333C51.552 63.3333 52.4048 62.4805 52.4048 61.4286Z" fill="#FB6A02"/>
<path d="M60.0238 59.5238H58.119C57.0671 59.5238 56.2143 60.3766 56.2143 61.4286C56.2143 62.4805 57.0671 63.3333 58.119 63.3333H60.0238V59.5238Z" fill="#FB6A02"/>
<path d="M63.8333 59.5238H60.0238V63.3333H63.8333V59.5238Z" fill="#FB6A02"/>
<path d="M71.4524 59.5238H67.6429V63.3333H71.4524V59.5238Z" fill="#FB6A02"/>
<path d="M82.881 61.4286C82.881 60.3766 82.0282 59.5238 80.9762 59.5238H79.0714V61.4286C79.0714 62.4805 79.9242 63.3333 80.9762 63.3333C82.0282 63.3333 82.881 62.4805 82.881 61.4286Z" fill="#FB6A02"/>
<path d="M90.5 61.4286C90.5 60.3766 89.6472 59.5238 88.5952 59.5238C87.5433 59.5238 86.6905 60.3766 86.6905 61.4286C86.6905 62.4805 87.5433 63.3333 88.5952 63.3333C89.6472 63.3333 90.5 62.4805 90.5 61.4286Z" fill="#FB6A02"/>
<path d="M14.3095 63.3333C12.2056 63.3333 10.5 65.0389 10.5 67.1429H14.3095V63.3333Z" fill="#FB6A02"/>
<path d="M18.119 63.3333H14.3095V67.1429H18.119V63.3333Z" fill="#FB6A02"/>
<path d="M21.9286 63.3333H18.119V67.1429H21.9286V63.3333Z" fill="#FB6A02"/>
<path d="M25.7381 63.3333H21.9286V67.1429H25.7381V63.3333Z" fill="#FB6A02"/>
<path d="M29.5476 63.3333H25.7381V67.1429H29.5476V63.3333Z" fill="#FB6A02"/>
<path d="M33.3571 63.3333H29.5476V67.1429H33.3571V63.3333Z" fill="#FB6A02"/>
<path d="M37.1667 67.1429C37.1667 65.0389 35.4611 63.3333 33.3571 63.3333V67.1429H37.1667Z" fill="#FB6A02"/>
<path d="M44.7857 65.2381C44.7857 64.1861 43.9329 63.3333 42.881 63.3333C41.829 63.3333 40.9762 64.1861 40.9762 65.2381V67.1429H44.7857V65.2381Z" fill="#FB6A02"/>
<path d="M63.8333 63.3333H60.0238V67.1429H63.8333V63.3333Z" fill="#FB6A02"/>
<path d="M67.6429 63.3333H63.8333V67.1429H67.6429V63.3333Z" fill="#FB6A02"/>
<path d="M71.4524 63.3333H67.6429V67.1429H71.4524V63.3333Z" fill="#FB6A02"/>
<path d="M14.3095 67.1429H10.5V70.9524H14.3095V67.1429Z" fill="#FB6A02"/>
<path d="M37.1667 67.1429H33.3571V70.9524H37.1667V67.1429Z" fill="#FB6A02"/>
<path d="M44.7857 67.1429H40.9762V70.9524H44.7857V67.1429Z" fill="#FB6A02"/>
<path d="M48.5952 70.9524C48.5952 68.8484 46.8897 67.1429 44.7857 67.1429V70.9524H48.5952Z" fill="#FB6A02"/>
<path d="M56.2143 69.0476C56.2143 67.9956 55.3615 67.1429 54.3095 67.1429C53.2575 67.1429 52.4048 67.9956 52.4048 69.0476V70.9524H56.2143V69.0476Z" fill="#FB6A02"/>
<path d="M63.8333 67.1429H60.0238V70.9524H63.8333V67.1429Z" fill="#FB6A02"/>
<path d="M67.6429 67.1429H63.8333V70.9524H67.6429V67.1429Z" fill="#FB6A02"/>
<path d="M71.4524 67.1429H67.6429V70.9524C69.7468 70.9524 71.4524 69.2468 71.4524 67.1429Z" fill="#FB6A02"/>
<path d="M14.3095 70.9524H10.5V74.7619H14.3095V70.9524Z" fill="#FB6A02"/>
<path d="M21.9286 70.9524C19.8246 70.9524 18.119 72.658 18.119 74.7619H21.9286V70.9524Z" fill="#FB6A02"/>
<path d="M25.7381 70.9524H21.9286V74.7619H25.7381V70.9524Z" fill="#FB6A02"/>
<path d="M29.5476 74.7619C29.5476 72.658 27.842 70.9524 25.7381 70.9524V74.7619H29.5476Z" fill="#FB6A02"/>
<path d="M37.1667 70.9524H33.3571V74.7619H37.1667V70.9524Z" fill="#FB6A02"/>
<path d="M44.7857 70.9524H40.9762V74.7619H44.7857V70.9524Z" fill="#FB6A02"/>
<path d="M52.4048 70.9524H48.5952L48.5952 74.7619H52.4048V70.9524Z" fill="#FB6A02"/>
<path d="M56.2143 70.9524H52.4048V74.7619H56.2143V70.9524Z" fill="#FB6A02"/>
<path d="M60.0238 70.9524H56.2143V74.7619H60.0238V70.9524Z" fill="#FB6A02"/>
<path d="M79.0714 72.8571C79.0714 71.8052 78.2186 70.9524 77.1667 70.9524C76.1147 70.9524 75.2619 71.8052 75.2619 72.8571V74.7619H79.0714V72.8571Z" fill="#FB6A02"/>
<path d="M14.3095 74.7619H10.5V78.5714H14.3095V74.7619Z" fill="#FB6A02"/>
<path d="M21.9286 74.7619H18.119V78.5714H21.9286V74.7619Z" fill="#FB6A02"/>
<path d="M25.7381 74.7619H21.9286V78.5714H25.7381V74.7619Z" fill="#FB6A02"/>
<path d="M29.5476 74.7619H25.7381V78.5714H29.5476V74.7619Z" fill="#FB6A02"/>
<path d="M37.1667 74.7619H33.3571V78.5714H37.1667V74.7619Z" fill="#FB6A02"/>
<path d="M44.7857 74.7619H40.9762V78.5714H44.7857V74.7619Z" fill="#FB6A02"/>
<path d="M48.5952 74.7619H44.7857V78.5714H48.5952L48.5952 74.7619Z" fill="#FB6A02"/>
<path d="M52.4048 74.7619H48.5952L48.5952 78.5714H52.4048V74.7619Z" fill="#FB6A02"/>
<path d="M56.2143 74.7619H52.4048V78.5714H56.2143V74.7619Z" fill="#FB6A02"/>
<path d="M60.0238 74.7619H56.2143V78.5714H60.0238V74.7619Z" fill="#FB6A02"/>
<path d="M71.4524 76.6667C71.4524 75.6147 70.5996 74.7619 69.5476 74.7619C68.4956 74.7619 67.6429 75.6147 67.6429 76.6667V78.5714H71.4524V76.6667Z" fill="#FB6A02"/>
<path d="M79.0714 74.7619H75.2619C75.2619 76.8658 76.9675 78.5714 79.0714 78.5714V74.7619Z" fill="#FB6A02"/>
<path d="M82.881 74.7619H79.0714V78.5714H82.881V74.7619Z" fill="#FB6A02"/>
<path d="M86.6905 78.5714C86.6905 76.4675 84.9849 74.7619 82.881 74.7619V78.5714H86.6905Z" fill="#FB6A02"/>
<path d="M14.3095 78.5714H10.5V82.381H14.3095V78.5714Z" fill="#FB6A02"/>
<path d="M21.9286 78.5714H18.119C18.119 80.6754 19.8246 82.381 21.9286 82.381V78.5714Z" fill="#FB6A02"/>
<path d="M25.7381 78.5714H21.9286V82.381H25.7381V78.5714Z" fill="#FB6A02"/>
<path d="M29.5476 78.5714H25.7381V82.381C27.842 82.381 29.5476 80.6754 29.5476 78.5714Z" fill="#FB6A02"/>
<path d="M37.1667 78.5714H33.3571V82.381H37.1667V78.5714Z" fill="#FB6A02"/>
<path d="M44.7857 78.5714H40.9762C40.9762 80.6754 42.6818 82.381 44.7857 82.381V78.5714Z" fill="#FB6A02"/>
<path d="M48.5952 78.5714H44.7857V82.381H48.5952V78.5714Z" fill="#FB6A02"/>
<path d="M52.4048 78.5714H48.5952V82.381H52.4048V78.5714Z" fill="#FB6A02"/>
<path d="M56.2143 78.5714H52.4048V82.381C54.5087 82.381 56.2143 80.6754 56.2143 78.5714Z" fill="#FB6A02"/>
<path d="M63.8333 82.381C63.8333 80.277 62.1278 78.5714 60.0238 78.5714C60.0238 80.6754 61.7294 82.381 63.8333 82.381Z" fill="#FB6A02"/>
<path d="M71.4524 78.5714H67.6429V82.381H71.4524V78.5714Z" fill="#FB6A02"/>
<path d="M82.881 78.5714H79.0714C79.0714 80.6754 80.777 82.381 82.881 82.381V78.5714Z" fill="#FB6A02"/>
<path d="M86.6905 78.5714H82.881V82.381H86.6905V78.5714Z" fill="#FB6A02"/>
<path d="M14.3095 82.381H10.5V86.1905H14.3095V82.381Z" fill="#FB6A02"/>
<path d="M37.1667 82.381H33.3571V86.1905H37.1667V82.381Z" fill="#FB6A02"/>
<path d="M52.4048 82.381H48.5952L48.5952 86.1905H52.4048V82.381Z" fill="#FB6A02"/>
<path d="M67.6429 82.381H63.8333V86.1905H67.6429V82.381Z" fill="#FB6A02"/>
<path d="M75.2619 84.2857C75.2619 83.2337 74.4091 82.381 73.3571 82.381H71.4524V86.1905H73.3571C74.4091 86.1905 75.2619 85.3377 75.2619 84.2857Z" fill="#FB6A02"/>
<path d="M90.5 84.2857C90.5 83.2337 89.6472 82.381 88.5952 82.381H86.6905V84.2857C86.6905 85.3377 87.5433 86.1905 88.5952 86.1905C89.6472 86.1905 90.5 85.3377 90.5 84.2857Z" fill="#FB6A02"/>
<path d="M14.3095 86.1905H10.5C10.5 88.2944 12.2056 90 14.3095 90V86.1905Z" fill="#FB6A02"/>
<path d="M18.119 86.1905H14.3095V90H18.119V86.1905Z" fill="#FB6A02"/>
<path d="M21.9286 86.1905H18.119V90H21.9286V86.1905Z" fill="#FB6A02"/>
<path d="M25.7381 86.1905H21.9286V90H25.7381V86.1905Z" fill="#FB6A02"/>
<path d="M29.5476 86.1905H25.7381V90H29.5476V86.1905Z" fill="#FB6A02"/>
<path d="M33.3571 86.1905H29.5476V90H33.3571V86.1905Z" fill="#FB6A02"/>
<path d="M37.1667 86.1905H33.3571V90C35.4611 90 37.1667 88.2944 37.1667 86.1905Z" fill="#FB6A02"/>
<path d="M48.5952 86.1905H46.6905C45.6385 86.1905 44.7857 87.0433 44.7857 88.0952C44.7857 89.1472 45.6385 90 46.6905 90C47.7424 90 48.5952 89.1472 48.5952 88.0952V86.1905Z" fill="#FB6A02"/>
<path d="M56.2143 88.0952C56.2143 87.0433 55.3615 86.1905 54.3095 86.1905H52.4048V88.0952C52.4048 89.1472 53.2575 90 54.3095 90C55.3615 90 56.2143 89.1472 56.2143 88.0952Z" fill="#FB6A02"/>
<path d="M63.8333 86.1905H61.9286C60.8766 86.1905 60.0238 87.0433 60.0238 88.0952C60.0238 89.1472 60.8766 90 61.9286 90C62.9805 90 63.8333 89.1472 63.8333 88.0952V86.1905Z" fill="#FB6A02"/>
<path d="M71.4524 86.1905H67.6429V88.0952C67.6429 89.1472 68.4956 90 69.5476 90C70.5996 90 71.4524 89.1472 71.4524 88.0952V86.1905Z" fill="#FB6A02"/>
</svg>
