<svg width="101" height="40" viewBox="0 0 101 40" fill="none" xmlns="http://www.w3.org/2000/svg">
<path d="M8.14395 8.38899C8.00025 6.11672 9.07621 1.53447 14.5296 1.38359C19.9831 1.2327 21.3105 5.99098 21.2925 8.38899" stroke="#FB6A02" stroke-width="1.7562"/>
<path d="M0.0742188 25.074C0.0742188 33.0413 6.60698 39.5 14.5742 39.5V39.5C22.5415 39.5 29.0742 33.0413 29.0742 25.074V8.5H0.0742188V25.074Z" fill="#FB6A02"/>
<rect x="7.24121" y="8.13921" width="1.76459" height="6.52305" fill="white"/>
<rect x="20.4141" y="8.13921" width="1.7579" height="6.52305" fill="white"/>
<path d="M34.9258 22.926C34.9258 14.9587 41.4585 8.5 49.4258 8.5C57.393 8.5 63.9258 14.9587 63.9258 22.926V39.5H34.9258V22.926Z" fill="#FB6A02"/>
<circle cx="85.4258" cy="24" r="15.5" fill="#FB6A02"/>
</svg>
