<svg width="33" height="33" viewBox="0 0 33 33" fill="none" xmlns="http://www.w3.org/2000/svg">
<path d="M16.8873 12.8685C16.2333 12.8685 15.594 13.0624 15.0502 13.4257C14.5064 13.7891 14.0826 14.3055 13.8323 14.9097C13.5821 15.5139 13.5166 16.1788 13.6442 16.8202C13.7717 17.4617 14.0867 18.0508 14.5491 18.5133C15.0116 18.9757 15.6008 19.2907 16.2422 19.4183C16.8836 19.5458 17.5485 19.4804 18.1527 19.2301C18.7569 18.9798 19.2733 18.556 19.6367 18.0122C20 17.4684 20.194 16.8291 20.194 16.1751C20.194 15.7409 20.1084 15.3109 19.9422 14.9097C19.7761 14.5085 19.5325 14.144 19.2255 13.837C18.9184 13.5299 18.5539 13.2863 18.1527 13.1202C17.7515 12.954 17.3215 12.8685 16.8873 12.8685ZM30.1273 9.6018C30.1203 8.57214 29.9307 7.55189 29.5673 6.58846C29.2997 5.88348 28.8856 5.24326 28.3524 4.71004C27.8192 4.17683 27.1789 3.76275 26.474 3.49513C25.5105 3.13175 24.4903 2.94214 23.4606 2.93513C21.7406 2.8418 21.234 2.8418 16.8873 2.8418C12.5406 2.8418 12.034 2.8418 10.314 2.93513C9.2843 2.94214 8.26405 3.13175 7.30062 3.49513C6.59563 3.76275 5.95541 4.17683 5.4222 4.71004C4.88899 5.24326 4.47491 5.88348 4.20729 6.58846C3.84391 7.55189 3.6543 8.57214 3.64729 9.6018C3.55395 11.3218 3.55396 11.8285 3.55396 16.1751C3.55396 20.5218 3.55395 21.0285 3.64729 22.7485C3.66164 23.7817 3.85099 24.8051 4.20729 25.7751C4.47373 26.4769 4.88746 27.1134 5.42062 27.6418C5.95155 28.1782 6.59314 28.5923 7.30062 28.8551C8.26405 29.2185 9.2843 29.4081 10.314 29.4151C12.034 29.5085 12.5406 29.5085 16.8873 29.5085C21.234 29.5085 21.7406 29.5085 23.4606 29.4151C24.4903 29.4081 25.5105 29.2185 26.474 28.8551C27.1814 28.5923 27.823 28.1782 28.354 27.6418C28.8871 27.1134 29.3008 26.4769 29.5673 25.7751C29.9303 24.807 30.1199 23.7824 30.1273 22.7485C30.2206 21.0285 30.2206 20.5218 30.2206 16.1751C30.2206 11.8285 30.2206 11.3218 30.1273 9.6018ZM26.7406 20.2685C26.6978 21.0913 26.5222 21.9017 26.2206 22.6685C25.9618 23.308 25.577 23.889 25.0891 24.3769C24.6012 24.8648 24.0202 25.2496 23.3806 25.5085C22.6066 25.7933 21.7916 25.9508 20.9673 25.9751H12.8073C11.9829 25.9508 11.1679 25.7933 10.394 25.5085C9.73276 25.2628 9.13566 24.8708 8.64729 24.3618C8.16418 23.8835 7.79108 23.3056 7.55395 22.6685C7.26803 21.8953 7.11476 21.0794 7.10062 20.2551V12.0951C7.11476 11.2709 7.26803 10.455 7.55395 9.6818C7.79966 9.0206 8.19165 8.4235 8.70062 7.93513C9.18107 7.45463 9.75831 7.08192 10.394 6.8418C11.1679 6.557 11.9829 6.39941 12.8073 6.37513H20.9673C21.7916 6.39941 22.6066 6.557 23.3806 6.8418C24.0418 7.08751 24.6389 7.4795 25.1273 7.98846C25.6104 8.46679 25.9835 9.04464 26.2206 9.6818C26.5054 10.4558 26.663 11.2708 26.6873 12.0951V16.1751C26.6873 18.9218 26.7806 19.2018 26.7406 20.2551V20.2685ZM24.6073 10.3485C24.4485 9.91778 24.1982 9.52665 23.8737 9.20208C23.5491 8.87751 23.158 8.62721 22.7273 8.46846C22.1359 8.26348 21.5131 8.16418 20.8873 8.17513H12.8873C12.2583 8.18128 11.6354 8.29864 11.0473 8.5218C10.6232 8.67334 10.2362 8.91341 9.91207 9.22606C9.58792 9.53872 9.33404 9.91678 9.16729 10.3351C8.97366 10.929 8.87906 11.5506 8.88729 12.1751V20.1751C8.90051 20.8034 9.01765 21.4251 9.23395 22.0151C9.39271 22.4458 9.643 22.8369 9.96757 23.1615C10.2921 23.4861 10.6833 23.7364 11.114 23.8951C11.6828 24.1043 12.2815 24.2214 12.8873 24.2418H20.8873C21.5163 24.2356 22.1392 24.1183 22.7273 23.8951C23.158 23.7364 23.5491 23.4861 23.8737 23.1615C24.1982 22.8369 24.4485 22.4458 24.6073 22.0151C24.8304 21.427 24.9478 20.8041 24.954 20.1751V12.1751C24.9543 11.5455 24.8368 10.9214 24.6073 10.3351V10.3485ZM16.8873 21.2685C16.219 21.2685 15.5574 21.1366 14.9402 20.8805C14.323 20.6244 13.7624 20.249 13.2905 19.7759C12.8186 19.3027 12.4447 18.7411 12.1901 18.1233C11.9356 17.5054 11.8055 16.8434 11.8073 16.1751C11.8073 15.1672 12.1063 14.1819 12.6666 13.344C13.2269 12.5062 14.0231 11.8533 14.9546 11.4682C15.886 11.0831 16.9108 10.9831 17.8992 11.1807C18.8876 11.3783 19.7951 11.8647 20.5069 12.5783C21.2186 13.292 21.7027 14.2008 21.8977 15.1897C22.0927 16.1786 21.99 17.2031 21.6024 18.1335C21.2149 19.064 20.56 19.8585 19.7206 20.4166C18.8813 20.9746 17.8952 21.2711 16.8873 21.2685ZM22.2206 12.0818C21.9259 12.0506 21.6531 11.9114 21.4549 11.6911C21.2566 11.4708 21.1469 11.1849 21.1469 10.8885C21.1469 10.5921 21.2566 10.3062 21.4549 10.0858C21.6531 9.8655 21.9259 9.72633 22.2206 9.69513C22.5154 9.72633 22.7881 9.8655 22.9864 10.0858C23.1846 10.3062 23.2943 10.5921 23.2943 10.8885C23.2943 11.1849 23.1846 11.4708 22.9864 11.6911C22.7881 11.9114 22.5154 12.0506 22.2206 12.0818Z" fill="#181818"/>
</svg>
