<svg width="92" height="35" viewBox="0 0 92 35" fill="none" xmlns="http://www.w3.org/2000/svg">
<path d="M8.50921 8.1748C8.40002 6.22962 9.21756 2.30697 13.3612 2.17781C17.5049 2.04864 18.5135 6.12199 18.4999 8.1748" stroke="#181818" stroke-width="2"/>
<path d="M3 20.9116C3 26.6492 7.74147 31.3193 13.5 31.3193C19.2585 31.3193 24 26.6492 24 20.9116V8.31934H3V20.9116Z" stroke="#181818" stroke-width="2"/>
<rect x="7.49951" y="7.31934" width="2.00098" height="5" fill="#B2B2B2"/>
<rect x="17.4995" y="7.31934" width="2.00098" height="5" fill="#B2B2B2"/>
<path d="M42.456 25.9628C40.072 25.9628 38.208 25.2988 36.864 23.9708C35.52 22.6428 34.848 20.7468 34.848 18.2828V8.8748H38.736V18.1388C38.736 19.7388 39.064 20.8908 39.72 21.5948C40.376 22.2988 41.296 22.6508 42.48 22.6508C43.664 22.6508 44.584 22.2988 45.24 21.5948C45.896 20.8908 46.224 19.7388 46.224 18.1388V8.8748H50.064V18.2828C50.064 20.7468 49.392 22.6428 48.048 23.9708C46.704 25.2988 44.84 25.9628 42.456 25.9628ZM53.9061 25.6748V8.8748H57.1221L67.0341 20.9708H65.4741V8.8748H69.3141V25.6748H66.1221L56.1861 13.5788H57.7461V25.6748H53.9061ZM81.4489 25.9628C80.1209 25.9628 78.8889 25.7468 77.7529 25.3148C76.6329 24.8828 75.6569 24.2748 74.8249 23.4908C74.0089 22.7068 73.3689 21.7868 72.9049 20.7308C72.4569 19.6748 72.2329 18.5228 72.2329 17.2748C72.2329 16.0268 72.4569 14.8748 72.9049 13.8188C73.3689 12.7628 74.0169 11.8428 74.8489 11.0588C75.6809 10.2748 76.6569 9.6668 77.7769 9.2348C78.8969 8.8028 80.1129 8.5868 81.4249 8.5868C82.7529 8.5868 83.9689 8.8028 85.0729 9.2348C86.1929 9.6668 87.1609 10.2748 87.9769 11.0588C88.8089 11.8428 89.4569 12.7628 89.9209 13.8188C90.3849 14.8588 90.6169 16.0108 90.6169 17.2748C90.6169 18.5228 90.3849 19.6828 89.9209 20.7548C89.4569 21.8108 88.8089 22.7308 87.9769 23.5148C87.1609 24.2828 86.1929 24.8828 85.0729 25.3148C83.9689 25.7468 82.7609 25.9628 81.4489 25.9628ZM81.4249 22.6508C82.1769 22.6508 82.8649 22.5228 83.4889 22.2668C84.1289 22.0108 84.6889 21.6428 85.1689 21.1628C85.6489 20.6828 86.0169 20.1148 86.2729 19.4588C86.5449 18.8028 86.6809 18.0748 86.6809 17.2748C86.6809 16.4748 86.5449 15.7468 86.2729 15.0908C86.0169 14.4348 85.6489 13.8668 85.1689 13.3868C84.7049 12.9068 84.1529 12.5388 83.5129 12.2828C82.8729 12.0268 82.1769 11.8988 81.4249 11.8988C80.6729 11.8988 79.9769 12.0268 79.3369 12.2828C78.7129 12.5388 78.1609 12.9068 77.6809 13.3868C77.2009 13.8668 76.8249 14.4348 76.5529 15.0908C76.2969 15.7468 76.1689 16.4748 76.1689 17.2748C76.1689 18.0588 76.2969 18.7868 76.5529 19.4588C76.8249 20.1148 77.1929 20.6828 77.6569 21.1628C78.1369 21.6428 78.6969 22.0108 79.3369 22.2668C79.9769 22.5228 80.6729 22.6508 81.4249 22.6508Z" fill="#181818"/>
</svg>
