<svg width="33" height="33" viewBox="0 0 33 33" fill="none" xmlns="http://www.w3.org/2000/svg">
<path d="M30.2206 8.90846C30.2056 8.33323 30.1611 7.75914 30.0873 7.18846C29.9877 6.68863 29.8218 6.20434 29.594 5.74846C29.3556 5.25394 29.0356 4.80317 28.6473 4.41513C28.2554 4.0314 27.8054 3.71192 27.314 3.46846C26.8575 3.24506 26.3732 3.08363 25.874 2.98846C25.3087 2.9038 24.7387 2.85481 24.1673 2.8418H9.62062C9.04538 2.85678 8.4713 2.90128 7.90062 2.97513C7.40079 3.07469 6.9165 3.2406 6.46062 3.46846C5.96609 3.70678 5.51532 4.02683 5.12729 4.41513C4.74356 4.80701 4.42408 5.25699 4.18062 5.74846C3.95721 6.20495 3.79579 6.68923 3.70062 7.18846C3.61595 7.75371 3.56697 8.32373 3.55396 8.89513V23.4418C3.56894 24.017 3.61344 24.5911 3.68729 25.1618C3.78685 25.6616 3.95276 26.1459 4.18062 26.6018C4.41894 27.0963 4.73899 27.5471 5.12729 27.9351C5.51917 28.3189 5.96915 28.6383 6.46062 28.8818C6.91711 29.1052 7.40139 29.2666 7.90062 29.3618C8.46587 29.4465 9.03588 29.4954 9.60729 29.5085H24.154C24.7292 29.4935 25.3033 29.449 25.874 29.3751C26.3738 29.2756 26.8581 29.1097 27.314 28.8818C27.8085 28.6435 28.2593 28.3234 28.6473 27.9351C29.031 27.5432 29.3505 27.0933 29.594 26.6018C29.8174 26.1453 29.9788 25.661 30.074 25.1618C30.1586 24.5965 30.2076 24.0265 30.2206 23.4551V8.90846ZM17.194 25.5085C15.5927 25.5006 14.0195 25.0878 12.6206 24.3085L7.55395 25.6418L8.88729 20.6818C8.02744 19.2371 7.56727 17.5897 7.55395 15.9085C7.55926 14.019 8.12356 12.1734 9.17577 10.6041C10.228 9.03473 11.721 7.81184 13.4669 7.08942C15.2128 6.367 17.1334 6.17736 18.9869 6.54438C20.8403 6.91141 22.5437 7.81868 23.8825 9.15193C25.2213 10.4852 26.1357 12.1848 26.5104 14.0367C26.8851 15.8886 26.7035 17.81 25.9883 19.5589C25.2732 21.3077 24.0565 22.8059 22.4916 23.8646C20.9266 24.9233 19.0833 25.4953 17.194 25.5085ZM17.194 8.0018C15.7804 8.01797 14.3963 8.40844 13.1827 9.13345C11.9691 9.85845 10.9693 10.8921 10.285 12.1292C9.60078 13.3662 9.25655 14.7625 9.2874 16.1758C9.31825 17.5892 9.72306 18.9691 10.4606 20.1751L10.6473 20.4818L9.84729 23.4018L12.8873 22.5751L13.1806 22.7485C14.3934 23.4628 15.7732 23.8445 17.1806 23.8551C19.3024 23.8551 21.3372 23.0123 22.8375 21.512C24.3378 20.0117 25.1806 17.9769 25.1806 15.8551C25.1806 13.7334 24.3378 11.6986 22.8375 10.1983C21.3372 8.69798 19.3024 7.85513 17.1806 7.85513L17.194 8.0018ZM21.8606 19.3618C21.686 19.6531 21.4522 19.9045 21.1742 20.0997C20.8963 20.2949 20.5805 20.4296 20.2473 20.4951C19.7493 20.5861 19.2367 20.5541 18.754 20.4018C18.2998 20.2598 17.8545 20.0906 17.4206 19.8951C15.7723 19.068 14.3665 17.8277 13.3406 16.2951C12.7831 15.5851 12.4449 14.7279 12.3673 13.8285C12.3593 13.4548 12.43 13.0837 12.5747 12.7392C12.7194 12.3946 12.935 12.0844 13.2073 11.8285C13.2875 11.7375 13.3859 11.6644 13.4962 11.6139C13.6064 11.5634 13.726 11.5365 13.8473 11.5351H14.2206C14.3673 11.5351 14.5673 11.5351 14.754 11.9485C14.9406 12.3618 15.434 13.6018 15.5006 13.7218C15.5334 13.7858 15.5505 13.8566 15.5505 13.9285C15.5505 14.0003 15.5334 14.0712 15.5006 14.1351C15.4417 14.28 15.3607 14.4149 15.2606 14.5351C15.1406 14.6818 15.0073 14.8551 14.9006 14.9618C14.794 15.0685 14.6606 15.2018 14.794 15.4418C15.1567 16.054 15.6058 16.6109 16.1273 17.0951C16.6952 17.5969 17.3445 17.9982 18.0473 18.2818C18.2873 18.4018 18.434 18.3885 18.5673 18.2818C18.7006 18.1751 19.1673 17.5885 19.3273 17.3485C19.4873 17.1085 19.6473 17.1485 19.8606 17.2285C20.074 17.3085 21.2606 17.8818 21.5006 18.0018C21.7406 18.1218 21.8873 18.1751 21.954 18.2818C22.0118 18.6308 21.9797 18.9887 21.8606 19.3218V19.3618Z" fill="#181818"/>
</svg>
