<svg width="110" height="110" viewBox="0 0 110 110" fill="none" xmlns="http://www.w3.org/2000/svg">
<path d="M55 6.875C67.7635 6.875 80.0043 11.9453 89.0295 20.9705C98.0547 29.9957 103.125 42.2365 103.125 55C103.125 67.7635 98.0547 80.0043 89.0295 89.0295C80.0043 98.0547 67.7635 103.125 55 103.125C42.2365 103.125 29.9957 98.0547 20.9705 89.0295C11.9453 80.0043 6.875 67.7635 6.875 55C6.875 42.2365 11.9453 29.9957 20.9705 20.9705C29.9957 11.9453 42.2365 6.875 55 6.875ZM49.005 64.4944L38.3144 53.7969C37.9311 53.4136 37.4761 53.1096 36.9754 52.9022C36.4746 52.6948 35.9379 52.588 35.3959 52.588C34.8539 52.588 34.3172 52.6948 33.8165 52.9022C33.3157 53.1096 32.8608 53.4136 32.4775 53.7969C31.7035 54.5709 31.2686 55.6207 31.2686 56.7153C31.2686 57.8099 31.7035 58.8597 32.4775 59.6337L46.09 73.2463C46.4722 73.6315 46.9268 73.9372 47.4277 74.1458C47.9286 74.3545 48.4658 74.4619 49.0084 74.4619C49.551 74.4619 50.0883 74.3545 50.5892 74.1458C51.0901 73.9372 51.5447 73.6315 51.9269 73.2463L80.1144 45.0519C80.5027 44.6702 80.8117 44.2154 81.0235 43.7138C81.2352 43.2121 81.3455 42.6735 81.348 42.1289C81.3506 41.5844 81.2453 41.0448 81.0382 40.5412C80.8311 40.0376 80.5264 39.5799 80.1416 39.1947C79.7568 38.8094 79.2995 38.5041 78.7962 38.2965C78.2928 38.0888 77.7533 37.9829 77.2088 37.9848C76.6642 37.9867 76.1255 38.0964 75.6236 38.3075C75.1216 38.5186 74.6665 38.8271 74.2844 39.215L49.005 64.4944Z" fill="#009C4D"/>
</svg>
