<svg width="25" height="24" viewBox="0 0 25 24" fill="none" xmlns="http://www.w3.org/2000/svg">
<path fill-rule="evenodd" clip-rule="evenodd" d="M7.9222 19.8203C8.3442 19.8203 8.6872 20.1633 8.6872 20.5853C8.6872 21.0073 8.3442 21.3493 7.9222 21.3493C7.5002 21.3493 7.1582 21.0073 7.1582 20.5853C7.1582 20.1633 7.5002 19.8203 7.9222 19.8203Z" stroke="#384CFF" stroke-width="1.5" stroke-linecap="round" stroke-linejoin="round"/>
<path fill-rule="evenodd" clip-rule="evenodd" d="M19.1752 19.8203C19.5972 19.8203 19.9402 20.1633 19.9402 20.5853C19.9402 21.0073 19.5972 21.3493 19.1752 21.3493C18.7532 21.3493 18.4102 21.0073 18.4102 20.5853C18.4102 20.1633 18.7532 19.8203 19.1752 19.8203Z" stroke="#384CFF" stroke-width="1.5" stroke-linecap="round" stroke-linejoin="round"/>
<path d="M3.25 3.25L5.33 3.61L6.293 15.083C6.371 16.018 7.152 16.736 8.09 16.736H19.002C19.898 16.736 20.658 16.078 20.787 15.19L21.736 8.632C21.853 7.823 21.226 7.099 20.409 7.099H5.664" stroke="#384CFF" stroke-width="1.5" stroke-linecap="round" stroke-linejoin="round"/>
<path d="M14.626 10.7949H17.399" stroke="#384CFF" stroke-width="1.5" stroke-linecap="round" stroke-linejoin="round"/>
</svg>
