<svg width="25" height="24" viewBox="0 0 25 24" fill="none" xmlns="http://www.w3.org/2000/svg">
<path d="M2.5 10H22.5" stroke="white" stroke-width="1.5" stroke-miterlimit="10" stroke-linecap="round" stroke-linejoin="round"/>
<path d="M12.0483 20.4998H6.93829C3.38829 20.4998 2.48828 19.6198 2.48828 16.1098V7.88977C2.48828 4.70977 3.22831 3.68977 6.01831 3.52977C6.29831 3.51977 6.60829 3.50977 6.93829 3.50977H18.0483C21.5983 3.50977 22.4983 4.38977 22.4983 7.89977V12.3098" stroke="white" stroke-width="1.5" stroke-linecap="round" stroke-linejoin="round"/>
<path d="M6.5 16H10.5" stroke="white" stroke-width="1.5" stroke-miterlimit="10" stroke-linecap="round" stroke-linejoin="round"/>
<path d="M22.5 18C22.5 18.75 22.29 19.46 21.92 20.06C21.23 21.22 19.96 22 18.5 22C17.04 22 15.77 21.22 15.08 20.06C14.71 19.46 14.5 18.75 14.5 18C14.5 15.79 16.29 14 18.5 14C20.71 14 22.5 15.79 22.5 18Z" stroke="white" stroke-width="1.5" stroke-miterlimit="10" stroke-linecap="round" stroke-linejoin="round"/>
<path d="M16.9414 17.9995L17.9314 18.9895L20.0614 17.0195" stroke="white" stroke-width="1.5" stroke-linecap="round" stroke-linejoin="round"/>
</svg>
