<svg width="25" height="24" viewBox="0 0 25 24" fill="none" xmlns="http://www.w3.org/2000/svg">
<path fill-rule="evenodd" clip-rule="evenodd" d="M7.98861 19.8203C8.41061 19.8203 8.75361 20.1633 8.75361 20.5853C8.75361 21.0073 8.41061 21.3493 7.98861 21.3493C7.56661 21.3493 7.22461 21.0073 7.22461 20.5853C7.22461 20.1633 7.56661 19.8203 7.98861 19.8203Z" stroke="#384CFF" stroke-width="1.5" stroke-linecap="round" stroke-linejoin="round"/>
<path fill-rule="evenodd" clip-rule="evenodd" d="M19.2416 19.8203C19.6636 19.8203 20.0066 20.1633 20.0066 20.5853C20.0066 21.0073 19.6636 21.3493 19.2416 21.3493C18.8196 21.3493 18.4766 21.0073 18.4766 20.5853C18.4766 20.1633 18.8196 19.8203 19.2416 19.8203Z" stroke="#384CFF" stroke-width="1.5" stroke-linecap="round" stroke-linejoin="round"/>
<path d="M3.31641 3.25L5.39641 3.61L6.35941 15.083C6.43741 16.018 7.21841 16.736 8.15641 16.736H19.0684C19.9644 16.736 20.7244 16.078 20.8534 15.19L21.8024 8.632C21.9194 7.823 21.2924 7.099 20.4754 7.099H5.73041" stroke="#384CFF" stroke-width="1.5" stroke-linecap="round" stroke-linejoin="round"/>
<path d="M14.6924 10.7949H17.4654" stroke="#384CFF" stroke-width="1.5" stroke-linecap="round" stroke-linejoin="round"/>
</svg>
