<svg width="24" height="24" viewBox="0 0 24 24" fill="none" xmlns="http://www.w3.org/2000/svg">
<path d="M11.1038 3.81663C11.4706 3.07346 12.5304 3.07346 12.8972 3.81663L14.858 7.78909C15.0036 8.08394 15.2848 8.2884 15.6101 8.33595L19.9967 8.97712C20.8166 9.09696 21.1434 10.1048 20.5498 10.683L17.3773 13.773C17.1414 14.0027 17.0337 14.3339 17.0894 14.6584L17.8379 19.0226C17.978 19.8396 17.1205 20.4626 16.3869 20.0767L12.4659 18.0148C12.1746 17.8615 11.8264 17.8615 11.535 18.0148L7.61412 20.0767C6.88049 20.4625 6.02294 19.8396 6.16306 19.0226L6.91158 14.6584C6.96724 14.3339 6.85957 14.0027 6.6237 13.773L3.45117 10.683C2.85757 10.1048 3.18436 9.09696 4.00427 8.97712L8.39086 8.33595C8.71621 8.2884 8.9974 8.08394 9.14294 7.78909L11.1038 3.81663Z" fill="#FDC102"/>
</svg>
