<svg width="100%" height="100%" fill="none" xmlns="http://www.w3.org/2000/svg">
<path d="M16.0017 12.0001C14.9408 12.0001 13.9234 12.4215 13.1732 13.1717C12.4231 13.9218 12.0017 14.9392 12.0017 16.0001C12.0017 17.0609 12.4231 18.0784 13.1732 18.8285C13.9234 19.5787 14.9408 20.0001 16.0017 20.0001C17.0625 20.0001 18.0799 19.5787 18.8301 18.8285C19.5802 18.0784 20.0017 17.0609 20.0017 16.0001C20.0017 14.9392 19.5802 13.9218 18.8301 13.1717C18.0799 12.4215 17.0625 12.0001 16.0017 12.0001ZM16.0017 9.33341C17.7698 9.33341 19.4655 10.0358 20.7157 11.286C21.9659 12.5363 22.6683 14.232 22.6683 16.0001C22.6683 17.7682 21.9659 19.4639 20.7157 20.7141C19.4655 21.9644 17.7698 22.6667 16.0017 22.6667C14.2335 22.6667 12.5379 21.9644 11.2876 20.7141C10.0374 19.4639 9.33499 17.7682 9.33499 16.0001C9.33499 14.232 10.0374 12.5363 11.2876 11.286C12.5379 10.0358 14.2335 9.33341 16.0017 9.33341ZM24.6683 9.00008C24.6683 9.44211 24.4927 9.86603 24.1802 10.1786C23.8676 10.4912 23.4437 10.6667 23.0017 10.6667C22.5596 10.6667 22.1357 10.4912 21.8231 10.1786C21.5106 9.86603 21.335 9.44211 21.335 9.00008C21.335 8.55805 21.5106 8.13413 21.8231 7.82157C22.1357 7.50901 22.5596 7.33341 23.0017 7.33341C23.4437 7.33341 23.8676 7.50901 24.1802 7.82157C24.4927 8.13413 24.6683 8.55805 24.6683 9.00008ZM16.0017 5.33341C12.703 5.33341 12.1643 5.34275 10.6297 5.41075C9.58433 5.46008 8.88299 5.60008 8.23233 5.85341C7.68781 6.05333 7.19554 6.37376 6.79233 6.79075C6.375 7.19395 6.05413 7.68619 5.85366 8.23075C5.60033 8.88408 5.46033 9.58408 5.41233 10.6281C5.34299 12.1001 5.33366 12.6147 5.33366 16.0001C5.33366 19.3001 5.34299 19.8374 5.41099 21.3721C5.46033 22.4161 5.60033 23.1187 5.85233 23.7681C6.07899 24.3481 6.34566 24.7654 6.78833 25.2081C7.23766 25.6561 7.65499 25.9241 8.22833 26.1454C8.88699 26.4001 9.58833 26.5414 10.6283 26.5894C12.1003 26.6587 12.615 26.6667 16.0003 26.6667C19.3003 26.6667 19.8377 26.6574 21.3723 26.5894C22.415 26.5401 23.1163 26.4001 23.7683 26.1481C24.3123 25.9472 24.8044 25.6269 25.2083 25.2107C25.6577 24.7627 25.9257 24.3454 26.147 23.7707C26.4003 23.1147 26.5417 22.4134 26.5897 21.3707C26.659 19.9001 26.667 19.3841 26.667 16.0001C26.667 12.7014 26.6577 12.1627 26.5897 10.6281C26.5403 9.58541 26.399 8.88141 26.147 8.23075C25.946 7.68677 25.6257 7.19472 25.2097 6.79075C24.8066 6.37321 24.3143 6.0523 23.7697 5.85208C23.1163 5.59875 22.415 5.45875 21.3723 5.41075C19.9017 5.34141 19.387 5.33341 16.0003 5.33341M16.0003 2.66675C19.623 2.66675 20.075 2.68008 21.4977 2.74675C22.9163 2.81341 23.8843 3.03608 24.7337 3.36675C25.6137 3.70541 26.355 4.16408 27.0963 4.90408C27.7743 5.57061 28.2989 6.37687 28.6337 7.26675C28.963 8.11608 29.187 9.08408 29.2537 10.5041C29.3163 11.9254 29.3337 12.3774 29.3337 16.0001C29.3337 19.6227 29.3203 20.0747 29.2537 21.4961C29.187 22.9161 28.963 23.8827 28.6337 24.7334C28.2999 25.6238 27.7751 26.4302 27.0963 27.0961C26.4296 27.7738 25.6234 28.2984 24.7337 28.6334C23.8843 28.9627 22.9163 29.1867 21.4977 29.2534C20.075 29.3161 19.623 29.3334 16.0003 29.3334C12.3777 29.3334 11.9257 29.3201 10.503 29.2534C9.08432 29.1867 8.11766 28.9627 7.26699 28.6334C6.37676 28.2994 5.57036 27.7747 4.90433 27.0961C4.22623 26.4296 3.70161 25.6234 3.36699 24.7334C3.03633 23.8841 2.81366 22.9161 2.74699 21.4961C2.68299 20.0747 2.66699 19.6227 2.66699 16.0001C2.66699 12.3774 2.68033 11.9254 2.74699 10.5041C2.81366 9.08408 3.03633 8.11741 3.36699 7.26675C3.70064 6.37632 4.2254 5.56984 4.90433 4.90408C5.57055 4.22572 6.3769 3.70105 7.26699 3.36675C8.11632 3.03608 9.08299 2.81341 10.503 2.74675C11.927 2.68408 12.379 2.66675 16.0017 2.66675" fill="black"/>
</svg>
