<svg width="142" height="25" viewBox="0 0 142 25" fill="none" xmlns="http://www.w3.org/2000/svg">
<g clip-path="url(#clip0_1019_1853)">
<path fill-rule="evenodd" clip-rule="evenodd" d="M7.72623 4.70739C7.87815 4.54969 8.12685 4.54729 8.28172 4.70199L11.1959 7.61357C11.3508 7.76827 11.3531 8.02153 11.2012 8.17923L6.82016 12.7263L11.2012 17.2733C11.3531 17.431 11.3508 17.6843 11.1959 17.839L8.28172 20.7506C8.12685 20.9052 7.87815 20.9028 7.72623 20.7452L0.404955 13.1465C0.180119 12.9131 0.180119 12.5394 0.404955 12.3061L7.72623 4.70739Z" fill="#1D90FF"/>
<path fill-rule="evenodd" clip-rule="evenodd" d="M134.221 4.70739C134.069 4.54969 133.82 4.54729 133.665 4.70199L130.751 7.61357C130.596 7.76827 130.594 8.02153 130.746 8.17923L135.127 12.7263L130.746 17.2733C130.594 17.431 130.596 17.6843 130.751 17.839L133.665 20.7506C133.82 20.9052 134.069 20.9028 134.221 20.7452L141.542 13.1465C141.767 12.9131 141.767 12.5394 141.542 12.3061L134.221 4.70739Z" fill="#1D90FF"/>
<path d="M127.143 23.7154C127.176 23.8176 127.193 23.9144 127.193 24.0054C127.193 24.1646 127.143 24.2896 127.043 24.3806C126.942 24.4602 126.802 24.5 126.624 24.5H121.799C121.42 24.5 121.168 24.3124 121.046 23.9372L119.974 20.7474H111.531L110.459 23.9372C110.347 24.3124 110.096 24.5 109.705 24.5H104.898C104.719 24.5 104.574 24.4602 104.462 24.3806C104.362 24.2896 104.312 24.1646 104.312 24.0054C104.312 23.9144 104.328 23.8176 104.362 23.7154L112.938 1.04584C113.072 0.681947 113.329 0.5 113.709 0.5H117.846C118.226 0.5 118.483 0.681947 118.617 1.04584L127.143 23.7154ZM118.282 15.6301L116.037 8.90938L115.736 7.8177L115.484 8.90938L113.24 15.6301H118.282Z" fill="black"/>
<path d="M83.7363 24.5C83.2897 24.5 83.0664 24.2725 83.0664 23.8175V1.21636C83.0664 0.761491 83.2897 0.534058 83.7363 0.534058H91.9276C94.2056 0.534058 96.2883 1.05716 98.1756 2.10335C100.074 3.14955 101.57 4.58807 102.665 6.41891C103.77 8.23839 104.323 10.2683 104.323 12.5085C104.323 14.7487 103.776 16.7842 102.682 18.6151C101.587 20.4459 100.096 21.8843 98.2091 22.9305C96.3219 23.9767 94.2447 24.5 91.9778 24.5H83.7363ZM92.1788 18.6151C93.3291 18.6151 94.362 18.3592 95.2776 17.8475C96.1934 17.3358 96.9082 16.6194 97.4218 15.6982C97.9467 14.7658 98.2091 13.7025 98.2091 12.5085C98.2091 11.3372 97.9467 10.291 97.4218 9.36987C96.9082 8.43739 96.1878 7.71529 95.2609 7.20357C94.3453 6.68047 93.3122 6.41891 92.1621 6.41891H89.0966V18.6151H92.1788Z" fill="black"/>
<path d="M63.7056 23.8175C63.7056 24.2725 63.4821 24.5 63.0355 24.5H58.5127C58.0661 24.5 57.8428 24.2725 57.8428 23.8175V1.21636C57.8428 0.761491 58.0661 0.534058 58.5127 0.534058H63.6887C64.0462 0.534058 64.3141 0.68189 64.4928 0.977553L72.5165 14.0778V1.21636C72.5165 0.761491 72.7398 0.534058 73.1864 0.534058H77.7092C78.1558 0.534058 78.3794 0.761491 78.3794 1.21636V23.8175C78.3794 24.2725 78.1558 24.5 77.7092 24.5H73.1028C72.7565 24.5 72.4886 24.3521 72.2987 24.0563L63.7056 10.2057V23.8175Z" fill="black"/>
<path d="M55.0018 23.7154C55.0354 23.8176 55.0521 23.9144 55.0521 24.0054C55.0521 24.1646 55.0018 24.2896 54.9012 24.3806C54.8009 24.4602 54.6612 24.5 54.4825 24.5H49.6582C49.2786 24.5 49.0274 24.3124 48.9044 23.9372L47.8324 20.7474H39.39L38.3181 23.9372C38.2063 24.3124 37.9551 24.5 37.5642 24.5H32.7567C32.5779 24.5 32.4328 24.4602 32.3211 24.3806C32.2207 24.2896 32.1704 24.1646 32.1704 24.0054C32.1704 23.9144 32.1871 23.8176 32.2207 23.7154L40.7971 1.04584C40.931 0.681947 41.1879 0.5 41.5676 0.5H45.705C46.0848 0.5 46.3415 0.681947 46.4757 1.04584L55.0018 23.7154ZM46.1406 15.6301L43.8959 8.90938L43.5944 7.8177L43.3432 8.90938L41.0985 15.6301H46.1406Z" fill="black"/>
<path d="M27.5363 23.8175C27.5363 24.2725 27.313 24.5 26.8662 24.5H22.1761C21.7293 24.5 21.506 24.2725 21.506 23.8175V6.24835H15.8609C15.4143 6.24835 15.1909 6.02091 15.1909 5.56603V1.21636C15.1909 0.761491 15.4143 0.534058 15.8609 0.534058H33.1981C33.6447 0.534058 33.8682 0.761491 33.8682 1.21636V5.56603C33.8682 6.02091 33.6447 6.24835 33.1981 6.24835H27.5363V23.8175Z" fill="black"/>
</g>
<defs>
<clipPath id="clip0_1019_1853">
<rect width="142" height="24" fill="white" transform="translate(0 0.5)"/>
</clipPath>
</defs>
</svg>
