<svg width="100%" height="100%" fill="none" xmlns="http://www.w3.org/2000/svg">
<rect width="24" height="24" rx="12" fill="#DEDEDE"/>
<path d="M15.1249 7C15.1249 7.8288 14.7957 8.62366 14.2096 9.20971C13.6236 9.79576 12.8287 10.125 11.9999 10.125C11.1711 10.125 10.3762 9.79576 9.79019 9.20971C9.20414 8.62366 8.8749 7.8288 8.8749 7C8.8749 6.1712 9.20414 5.37634 9.79019 4.79029C10.3762 4.20424 11.1711 3.875 11.9999 3.875C12.8287 3.875 13.6236 4.20424 14.2096 4.79029C14.7957 5.37634 15.1249 6.1712 15.1249 7ZM5.75073 18.765C5.77751 17.1253 6.44768 15.5618 7.61671 14.4117C8.78575 13.2616 10.36 12.6171 11.9999 12.6171C13.6398 12.6171 15.2141 13.2616 16.3831 14.4117C17.5521 15.5618 18.2223 17.1253 18.2491 18.765C16.2886 19.664 14.1567 20.1279 11.9999 20.125C9.7699 20.125 7.65323 19.6383 5.75073 18.765Z" stroke="#757575" stroke-width="1.5" stroke-linecap="round" stroke-linejoin="round"/>
</svg>
