<svg width="24" height="25" viewBox="0 0 24 25" fill="none" xmlns="http://www.w3.org/2000/svg">
<path fill-rule="evenodd" clip-rule="evenodd" d="M7.42233 19.9951C7.84433 19.9951 8.18733 20.3381 8.18733 20.7601C8.18733 21.1821 7.84433 21.5241 7.42233 21.5241C7.00033 21.5241 6.65833 21.1821 6.65833 20.7601C6.65833 20.3381 7.00033 19.9951 7.42233 19.9951Z" stroke="#181818" stroke-width="1.5" stroke-linecap="round" stroke-linejoin="round"/>
<path fill-rule="evenodd" clip-rule="evenodd" d="M18.6747 19.9951C19.0967 19.9951 19.4397 20.3381 19.4397 20.7601C19.4397 21.1821 19.0967 21.5241 18.6747 21.5241C18.2527 21.5241 17.9097 21.1821 17.9097 20.7601C17.9097 20.3381 18.2527 19.9951 18.6747 19.9951Z" stroke="#181818" stroke-width="1.5" stroke-linecap="round" stroke-linejoin="round"/>
<path d="M2.74988 3.4248L4.82988 3.7848L5.79288 15.2578C5.87088 16.1928 6.65188 16.9108 7.58988 16.9108H18.5019C19.3979 16.9108 20.1579 16.2528 20.2869 15.3648L21.2359 8.8068C21.3529 7.9978 20.7259 7.2738 19.9089 7.2738H5.16388" stroke="#181818" stroke-width="1.5" stroke-linecap="round" stroke-linejoin="round"/>
<path d="M14.1254 10.9697H16.8984" stroke="#181818" stroke-width="1.5" stroke-linecap="round" stroke-linejoin="round"/>
</svg>
