<svg width="100%" height="100%" fill="none" xmlns="http://www.w3.org/2000/svg">
<path d="M8.10329 3.31663C8.47013 2.57346 9.52987 2.57346 9.89671 3.31663L11.0851 5.72409C11.2306 6.01894 11.5118 6.2234 11.8371 6.27095L14.4962 6.65962C15.3161 6.77946 15.6429 7.7873 15.0493 8.36546L13.1268 10.238C12.8909 10.4677 12.7833 10.7989 12.8389 11.1234L13.2924 13.7676C13.4325 14.5846 12.575 15.2076 11.8414 14.8217L9.46545 13.5723C9.17407 13.419 8.82593 13.419 8.53455 13.5723L6.15863 14.8217C5.425 15.2076 4.56745 14.5846 4.70757 13.7676L5.16109 11.1234C5.21675 10.7989 5.10908 10.4677 4.87321 10.238L2.95068 8.36546C2.35708 7.7873 2.68387 6.77946 3.50378 6.65962L6.16287 6.27095C6.48822 6.2234 6.76941 6.01894 6.91495 5.72409L8.10329 3.31663Z" fill="#949494"/>
</svg>
