<svg width="97" height="98" viewBox="0 0 97 98" fill="none" xmlns="http://www.w3.org/2000/svg">
<path d="M48.665 0.875C61.4286 0.875 73.6694 5.9453 82.6945 14.9705C91.7197 23.9957 96.79 36.2365 96.79 49C96.79 61.7635 91.7197 74.0043 82.6945 83.0295C73.6694 92.0547 61.4286 97.125 48.665 97.125C35.9015 97.125 23.6607 92.0547 14.6355 83.0295C5.61034 74.0043 0.540039 61.7635 0.540039 49C0.540039 36.2365 5.61034 23.9957 14.6355 14.9705C23.6607 5.9453 35.9015 0.875 48.665 0.875ZM42.67 58.4944L31.9794 47.7969C31.5962 47.4136 31.1412 47.1096 30.6404 46.9022C30.1397 46.6948 29.603 46.588 29.061 46.588C28.519 46.588 27.9823 46.6948 27.4815 46.9022C26.9808 47.1096 26.5258 47.4136 26.1425 47.7969C25.3685 48.5709 24.9337 49.6207 24.9337 50.7153C24.9337 51.8099 25.3685 52.8597 26.1425 53.6337L39.755 67.2463C40.1372 67.6315 40.5918 67.9372 41.0927 68.1458C41.5936 68.3545 42.1309 68.4619 42.6735 68.4619C43.2161 68.4619 43.7533 68.3545 44.2542 68.1458C44.7551 67.9372 45.2098 67.6315 45.5919 67.2463L73.7794 39.0519C74.1678 38.6702 74.4768 38.2154 74.6885 37.7138C74.9002 37.2121 75.0105 36.6735 75.0131 36.1289C75.0156 35.5844 74.9103 35.0448 74.7032 34.5412C74.4962 34.0376 74.1915 33.5799 73.8067 33.1947C73.4218 32.8094 72.9646 32.5041 72.4612 32.2965C71.9578 32.0888 71.4183 31.9829 70.8738 31.9848C70.3293 31.9867 69.7905 32.0964 69.2886 32.3075C68.7867 32.5186 68.3315 32.8271 67.9494 33.215L42.67 58.4944Z" fill="#009C4D"/>
</svg>
