<svg width="18" height="19" viewBox="0 0 18 19" fill="none" xmlns="http://www.w3.org/2000/svg">
<path d="M11.055 7.2499L10.7955 13.9999M7.2045 13.9999L6.945 7.2499M14.421 4.8424C14.6775 4.8814 14.9325 4.92265 15.1875 4.9669M14.421 4.8424L13.62 15.2547C13.5873 15.6786 13.3958 16.0745 13.0838 16.3633C12.7717 16.6521 12.3622 16.8125 11.937 16.8124H6.063C5.63782 16.8125 5.22827 16.6521 4.91623 16.3633C4.6042 16.0745 4.41269 15.6786 4.38 15.2547L3.579 4.8424M14.421 4.8424C13.5554 4.71154 12.6853 4.61222 11.8125 4.54465M3.579 4.8424C3.3225 4.88065 3.0675 4.9219 2.8125 4.96615M3.579 4.8424C4.4446 4.71154 5.31468 4.61223 6.1875 4.54465M11.8125 4.54465V3.85765C11.8125 2.97265 11.13 2.23465 10.245 2.2069C9.41521 2.18038 8.58479 2.18038 7.755 2.2069C6.87 2.23465 6.1875 2.9734 6.1875 3.85765V4.54465M11.8125 4.54465C9.94029 4.39996 8.05971 4.39996 6.1875 4.54465" stroke="#DA101C" stroke-width="1.5" stroke-linecap="round" stroke-linejoin="round"/>
</svg>
