<svg width="40" height="41" viewBox="0 0 40 41" fill="none" xmlns="http://www.w3.org/2000/svg">
<path d="M20 0.609375C31.04 0.609375 40 9.56938 40 20.6094C40 31.6494 31.04 40.6094 20 40.6094C8.96 40.6094 0 31.6494 0 20.6094C0 9.56938 8.96 0.609375 20 0.609375ZM8.04664 27.442C10.9817 31.8232 15.3902 34.6094 20.3194 34.6094C25.2486 34.6094 29.6572 31.8232 32.5922 27.442C29.377 24.4438 25.0624 22.6094 20.3194 22.6094C15.5764 22.6094 11.2619 24.4438 8.04664 27.442ZM20 18.6094C23.3138 18.6094 26 15.9231 26 12.6094C26 9.29568 23.3138 6.60938 20 6.60938C16.6862 6.60938 14 9.29568 14 12.6094C14 15.9231 16.6862 18.6094 20 18.6094Z" fill="#DEDEDE"/>
<path d="M20 18.6094C23.3138 18.6094 26 15.9231 26 12.6094C26 9.29568 23.3138 6.60938 20 6.60938C16.6862 6.60938 14 9.29568 14 12.6094C14 15.9231 16.6862 18.6094 20 18.6094Z" fill="#B0B0B0"/>
<path d="M8.04664 27.442C10.9817 31.8232 15.3902 34.6094 20.3194 34.6094C25.2486 34.6094 29.6572 31.8232 32.5922 27.442C29.377 24.4438 25.0624 22.6094 20.3194 22.6094C15.5764 22.6094 11.2619 24.4438 8.04664 27.442Z" fill="#B0B0B0"/>
</svg>
