<svg width="25" height="24" viewBox="0 0 25 24" fill="none" xmlns="http://www.w3.org/2000/svg">
<circle cx="12.0788" cy="7.27803" r="4.77803" stroke="black" stroke-width="1.5" stroke-linecap="round" stroke-linejoin="round"/>
<path fill-rule="evenodd" clip-rule="evenodd" d="M4.50002 18.7014C4.49873 18.3655 4.57385 18.0338 4.7197 17.7312C5.17736 16.8158 6.46798 16.3307 7.53892 16.111C8.31128 15.9462 9.09431 15.8361 9.88217 15.7815C11.3408 15.6534 12.8079 15.6534 14.2666 15.7815C15.0544 15.8367 15.8374 15.9468 16.6099 16.111C17.6808 16.3307 18.9714 16.7701 19.4291 17.7312C19.7224 18.348 19.7224 19.064 19.4291 19.6808C18.9714 20.6419 17.6808 21.0813 16.6099 21.2918C15.8384 21.4635 15.0551 21.5767 14.2666 21.6305C13.0794 21.7311 11.8866 21.7495 10.6968 21.6854C10.4222 21.6854 10.1568 21.6854 9.88217 21.6305C9.09663 21.5773 8.31632 21.4641 7.54807 21.2918C6.46798 21.0813 5.18652 20.6419 4.7197 19.6808C4.5746 19.3747 4.49955 19.0402 4.50002 18.7014Z" stroke="black" stroke-width="1.5" stroke-linecap="round" stroke-linejoin="round"/>
</svg>
