<svg width="100%" height="100%" fill="none" xmlns="http://www.w3.org/2000/svg">
<path d="M9.67199 24.6587L10.6373 25.2227C12.2652 26.1722 14.1168 26.6706 16.0013 26.6667C18.111 26.6667 20.1733 26.0412 21.9274 24.8691C23.6815 23.697 25.0487 22.0311 25.856 20.082C26.6634 18.133 26.8746 15.9882 26.463 13.9191C26.0515 11.85 25.0356 9.94937 23.5438 8.45761C22.052 6.96585 20.1514 5.94995 18.0823 5.53837C16.0132 5.1268 13.8684 5.33803 11.9194 6.14537C9.97029 6.9527 8.30438 8.31987 7.13231 10.074C5.96024 11.8281 5.33465 13.8904 5.33465 16.0001C5.33076 17.8852 5.82968 19.7373 6.77999 21.3654L7.34265 22.3307L6.47199 25.5321L9.67199 24.6587ZM2.67332 29.3334L4.47599 22.7094C3.28811 20.6732 2.66405 18.3574 2.66799 16.0001C2.66799 8.63608 8.63732 2.66675 16.0013 2.66675C23.3653 2.66675 29.3347 8.63608 29.3347 16.0001C29.3347 23.3641 23.3653 29.3334 16.0013 29.3334C13.645 29.3372 11.3302 28.7136 9.29465 27.5267L2.67332 29.3334ZM11.1893 9.74408C11.368 9.73075 11.548 9.73075 11.7267 9.73875C11.7987 9.74408 11.8707 9.75208 11.9427 9.76008C12.1547 9.78408 12.388 9.91341 12.4667 10.0921C12.864 10.9934 13.2507 11.9014 13.624 12.8121C13.7067 13.0147 13.6573 13.2747 13.5 13.5281C13.42 13.6574 13.2947 13.8387 13.1493 14.0241C12.9987 14.2174 12.6747 14.5721 12.6747 14.5721C12.6747 14.5721 12.5427 14.7294 12.5933 14.9254C12.612 15.0001 12.6733 15.1081 12.7293 15.1987L12.808 15.3254C13.1493 15.8947 13.608 16.4721 14.168 17.0161C14.328 17.1707 14.484 17.3294 14.652 17.4774C15.276 18.0281 15.9827 18.4774 16.7453 18.8107L16.752 18.8134C16.8653 18.8627 16.9227 18.8894 17.088 18.9601C17.1707 18.9947 17.256 19.0241 17.3427 19.0481C17.4322 19.0709 17.5265 19.0666 17.6136 19.0357C17.7008 19.0049 17.7768 18.9488 17.832 18.8747C18.7973 17.7054 18.8853 17.6294 18.8933 17.6294V17.6321C18.9604 17.5695 19.0401 17.5221 19.127 17.4929C19.2139 17.4636 19.3061 17.4534 19.3973 17.4627C19.4773 17.4681 19.5587 17.4827 19.6333 17.5161C20.3413 17.8401 21.5 18.3454 21.5 18.3454L22.276 18.6934C22.4067 18.7561 22.5253 18.9041 22.5293 19.0467C22.5347 19.1361 22.5427 19.2801 22.512 19.5441C22.4693 19.8894 22.3653 20.3041 22.2613 20.5214C22.19 20.6697 22.0955 20.8056 21.9813 20.9241C21.8468 21.0653 21.6995 21.1939 21.5413 21.3081C21.432 21.3907 21.3747 21.4281 21.3747 21.4281C21.2088 21.5332 21.0384 21.6311 20.864 21.7214C20.5207 21.9038 20.1415 22.0084 19.7533 22.0281C19.5067 22.0414 19.26 22.0601 19.012 22.0467C19.0013 22.0467 18.2547 21.9307 18.2547 21.9307C16.359 21.4321 14.6058 20.498 13.1347 19.2027C12.8333 18.9374 12.5533 18.6521 12.268 18.3681C11.084 17.1881 10.1867 15.9147 9.64132 14.7121C9.3636 14.1221 9.21366 13.4801 9.20132 12.8281C9.19631 12.0184 9.4614 11.2302 9.95465 10.5881C10.052 10.4627 10.144 10.3321 10.3027 10.1814C10.4707 10.0214 10.5787 9.93608 10.6947 9.87741C10.8489 9.80012 11.0171 9.75477 11.1893 9.74408Z" fill="black"/>
</svg>
