<svg width="32" height="33" viewBox="0 0 32 33" fill="none" xmlns="http://www.w3.org/2000/svg">
<path d="M5.03716 16.3483C3.77312 14.1442 3.16279 12.3444 2.79477 10.5201C2.25049 7.8219 3.49607 5.18621 5.5595 3.50443C6.43159 2.79364 7.4313 3.03649 7.947 3.96166L9.11124 6.05034C10.034 7.70588 10.4954 8.53366 10.4039 9.41125C10.3124 10.2888 9.69015 11.0036 8.44562 12.4331L5.03716 16.3483ZM5.03716 16.3483C7.59567 20.8095 11.6108 24.8268 16.0772 27.3883M16.0772 27.3883C18.2813 28.6523 20.081 29.2627 21.9054 29.6307C24.6036 30.175 27.2393 28.9294 28.921 26.866C29.6318 25.9939 29.389 24.9942 28.4638 24.4785L26.3751 23.3142C24.7196 22.3914 23.8918 21.93 23.0142 22.0215C22.1366 22.113 21.4218 22.7353 19.9923 23.9798L16.0772 27.3883Z" stroke="#141B34" stroke-width="1.5" stroke-linejoin="round"/>
</svg>
