<svg width="32" height="33" viewBox="0 0 32 33" fill="none" xmlns="http://www.w3.org/2000/svg">
<path d="M10.6667 21.7585H20.3509C26.3344 21.7585 27.2444 17.9995 28.348 12.5172C28.6664 10.9359 28.8256 10.1453 28.4428 9.61856C28.06 9.0918 27.3263 9.0918 25.8588 9.0918H8" stroke="#384CFF" stroke-width="1.5" stroke-linecap="round"/>
<path d="M10.6663 21.7585L7.17131 5.1117C6.87454 3.92458 5.80791 3.0918 4.58427 3.0918H3.33301" stroke="#384CFF" stroke-width="1.5" stroke-linecap="round"/>
<path d="M11.84 21.7598H11.2914C9.47363 21.7598 8 23.2948 8 25.1883C8 25.5039 8.2456 25.7598 8.54857 25.7598H23.3333" stroke="#384CFF" stroke-width="1.5" stroke-linecap="round" stroke-linejoin="round"/>
<path d="M14 29.7598C15.1046 29.7598 16 28.8643 16 27.7598C16 26.6552 15.1046 25.7598 14 25.7598C12.8954 25.7598 12 26.6552 12 27.7598C12 28.8643 12.8954 29.7598 14 29.7598Z" stroke="#384CFF" stroke-width="1.5"/>
<path d="M23.333 29.7598C24.4376 29.7598 25.333 28.8643 25.333 27.7598C25.333 26.6552 24.4376 25.7598 23.333 25.7598C22.2284 25.7598 21.333 26.6552 21.333 27.7598C21.333 28.8643 22.2284 29.7598 23.333 29.7598Z" stroke="#384CFF" stroke-width="1.5"/>
</svg>
