<svg width="32" height="33" viewBox="0 0 32 33" fill="none" xmlns="http://www.w3.org/2000/svg">
<path d="M12 29.7591L12.0026 24.4226C12.0031 23.1818 12.0034 22.5614 12.2062 22.072C12.477 21.4182 12.9966 20.8987 13.6505 20.6283C14.1401 20.4258 14.7605 20.4258 16.0013 20.4258C17.2425 20.4258 17.8632 20.4258 18.3529 20.6284C19.0071 20.8991 19.5267 21.4187 19.7973 22.0728C20 22.5626 20 23.1832 20 24.4244V29.7591" stroke="#575757" stroke-width="1.5"/>
<path d="M9.45131 6.77504L8.11796 7.81577C6.09575 9.39421 5.08464 10.1834 4.54232 11.2962C4 12.409 4 13.6945 4 16.2655V19.0538C4 24.1001 4 26.6231 5.56209 28.1909C7.1242 29.7585 9.63835 29.7585 14.6667 29.7585H17.3333C22.3616 29.7585 24.8759 29.7585 26.4379 28.1909C28 26.6231 28 24.1001 28 19.0538V16.2655C28 13.6945 28 12.409 27.4577 11.2962C26.9153 10.1834 25.9043 9.39421 23.882 7.81577L22.5487 6.77504C19.4028 4.31954 17.8299 3.0918 16 3.0918C14.1701 3.0918 12.5972 4.31954 9.45131 6.77504Z" stroke="#575757" stroke-width="1.5" stroke-linejoin="round"/>
</svg>
