<svg width="263" height="266" viewBox="0 0 263 266" fill="none" xmlns="http://www.w3.org/2000/svg">
<path d="M130.799 58.3762L98.2067 59.8602L67.2383 43.0592L102.818 42.0522L130.799 58.3762Z" fill="#1F93FF"/>
<path d="M98.207 60.1249C98.1546 60.1249 98.1022 60.1249 98.1022 60.0719L67.1338 43.2709C67.029 43.2179 66.9766 43.0589 66.9766 42.9529C66.9766 42.8469 67.1338 42.7409 67.2386 42.7409L102.818 41.7339C102.871 41.7339 102.923 41.7339 102.975 41.7869L130.957 58.1109C131.062 58.1639 131.114 58.2699 131.062 58.4289C131.009 58.5349 130.905 58.6409 130.8 58.6409L98.207 60.1249ZM68.2866 43.3239L98.3118 59.5949L129.909 58.1639L102.766 42.3169L68.2866 43.3239Z" fill="#732A09"/>
<path d="M98.2065 59.86L89.5605 93.144L122.206 91.713L130.799 58.376L98.2065 59.86Z" fill="#732A09"/>
<path d="M89.5608 93.4623C89.456 93.4623 89.4036 93.4093 89.3512 93.3563C89.2988 93.3033 89.2988 93.1973 89.2988 93.0913L97.9448 59.7543C97.9972 59.6483 98.102 59.5423 98.2068 59.5423L130.8 58.1113C130.904 58.1113 130.957 58.1643 131.009 58.2173C131.062 58.2703 131.062 58.3763 131.062 58.4823L122.468 91.8193C122.416 91.9253 122.311 92.0313 122.206 92.0313L89.5608 93.4623ZM98.4164 60.1253L89.9276 92.8793L121.944 91.4483L130.433 58.6943L98.4164 60.1253Z" fill="#732A09"/>
<path d="M67.2378 43.0591L58.5918 76.3431L89.5602 93.1441L98.2062 59.8601L67.2378 43.0591Z" fill="white"/>
<path d="M89.5605 93.4621C89.5081 93.4621 89.4557 93.4621 89.4557 93.4091L58.4873 76.6081C58.3825 76.5551 58.3301 76.3961 58.3301 76.2901L66.9761 42.9531C66.9761 42.8471 67.0285 42.7941 67.1333 42.7941C67.1857 42.7411 67.2905 42.7411 67.3953 42.7941L98.3637 59.5951C98.4685 59.6481 98.5209 59.8071 98.5209 59.9131L89.8225 93.2501C89.8225 93.3561 89.7701 93.4091 89.6653 93.4091C89.6653 93.4091 89.6129 93.4621 89.5605 93.4621ZM58.9065 76.2371L89.3509 92.7731L97.8397 60.0191L67.3953 43.4831L58.9065 76.2371Z" fill="#732A09"/>
<path d="M119.113 58.9061L111.62 59.2771L99.5156 52.5991L107.271 52.1221L119.113 58.9061Z" fill="white"/>
<path d="M111.62 59.5422C111.568 59.5422 111.516 59.5422 111.516 59.4892L99.3588 52.8112C99.2016 52.7582 99.2016 52.5462 99.254 52.4402C99.3064 52.3342 99.3588 52.2812 99.4636 52.2812L107.219 51.8042C107.271 51.8042 107.324 51.8042 107.376 51.8572L119.218 58.6412C119.323 58.6942 119.376 58.8002 119.323 58.9592C119.271 59.0652 119.166 59.1712 119.061 59.1712L111.62 59.5422ZM100.459 52.8112L111.673 59.0122L118.118 58.7472L107.166 52.4402L100.459 52.8112Z" fill="#732A09"/>
<path d="M99.2014 47.4583L91.3414 48.0413L81.4902 42.6353L90.3458 42.4233L99.2014 47.4583Z" fill="white"/>
<path d="M91.3421 48.306C91.2897 48.306 91.2373 48.306 91.2373 48.306L81.3861 42.9C81.2289 42.847 81.2289 42.635 81.2813 42.529C81.3337 42.423 81.4385 42.37 81.4909 42.37L90.3465 42.105C90.3989 42.105 90.4513 42.105 90.5037 42.158L99.3069 47.246C99.4117 47.299 99.4641 47.405 99.4117 47.564C99.4117 47.67 99.3069 47.776 99.1497 47.776L91.3421 48.306ZM82.5389 42.9L91.3945 47.776L98.2589 47.299L90.2941 42.741L82.5389 42.9Z" fill="#732A09"/>
<path d="M119.115 58.9062L110.469 92.2433L103.709 92.5083L111.621 59.2773L119.115 58.9062Z" fill="#1F93FF"/>
<path d="M103.709 92.8261C103.604 92.8261 103.552 92.7731 103.5 92.7201C103.447 92.6671 103.447 92.5611 103.447 92.4551L111.36 59.1711C111.412 59.0651 111.464 58.9591 111.622 58.9591L119.062 58.6411C119.167 58.6411 119.22 58.6941 119.272 58.7471C119.324 58.8001 119.324 58.9061 119.324 59.0121L110.678 92.3491C110.626 92.4551 110.521 92.5611 110.416 92.5611L103.709 92.8261ZM111.831 59.4891L104.076 92.1901L110.259 91.9251L118.748 59.1711L111.831 59.4891Z" fill="#732A09"/>
<path d="M118.853 51.4334L107.272 52.1224L99.5169 52.5994L86.2597 53.3944L78.2949 49.0484L91.3425 48.0414L99.2025 47.4584L110.626 46.6104L118.853 51.4334Z" fill="white"/>
<path d="M86.2597 53.6592C86.2073 53.6592 86.1549 53.6592 86.1549 53.6062L78.1377 49.3132C78.0329 49.2602 77.9805 49.1542 77.9805 48.9952C77.9805 48.8892 78.0853 48.7832 78.2425 48.7832L110.573 46.3452C110.626 46.3452 110.678 46.3452 110.73 46.3982L118.957 51.2212C119.062 51.2742 119.114 51.4862 119.062 51.5922C119.01 51.6452 118.957 51.6982 118.852 51.7512L86.2597 53.6592ZM79.2381 49.2602L86.3121 53.1292L117.909 51.2212L110.521 46.9282L79.2381 49.2602Z" fill="#732A09"/>
<path d="M86.2598 53.3943L76.7754 86.2013L69.125 82.0673L78.295 49.0483L86.2598 53.3943Z" fill="#1F93FF"/>
<path d="M76.7747 86.5191C76.7223 86.5191 76.67 86.5191 76.67 86.4661L68.9672 82.3321C68.8624 82.2791 68.81 82.1201 68.8624 82.0141L78.0324 48.9951C78.0324 48.9421 78.1372 48.8361 78.1896 48.8361C78.242 48.7831 78.3468 48.7831 78.3992 48.8361L86.3639 53.1821C86.4687 53.2351 86.5211 53.3941 86.5211 53.5001L77.0367 86.3601C77.0367 86.4131 76.932 86.5191 76.8796 86.5191C76.8796 86.4661 76.8271 86.5191 76.7747 86.5191ZM69.4387 81.9081L76.6176 85.8301L85.9447 53.5001L78.4516 49.4191L69.4387 81.9081Z" fill="#732A09"/>
<path d="M134.938 50.5849L100.302 52.1219L67.3945 34.3139L105.227 33.2539L134.938 50.5849Z" fill="white"/>
<path d="M100.302 52.4403C100.25 52.4403 100.197 52.4403 100.197 52.4403L67.29 34.5793C67.1852 34.5263 67.1328 34.3673 67.1328 34.2613C67.1328 34.1553 67.29 34.0493 67.3948 34.0493L105.175 32.9893C105.228 32.9893 105.28 32.9893 105.332 33.0423L135.043 50.3733C135.148 50.4263 135.2 50.6383 135.148 50.7443C135.096 50.8503 135.043 50.8503 134.938 50.9033L100.302 52.4403ZM68.4428 34.5793L100.354 51.9103L133.943 50.4263L105.123 33.5723L68.4428 34.5793Z" fill="#732A09"/>
<path d="M100.302 52.122L98.1016 60.655L132.738 59.118L134.939 50.585L100.302 52.122Z" fill="#732A09"/>
<path d="M98.1018 60.9733C97.997 60.9733 97.9446 60.9203 97.8922 60.8673C97.8398 60.8143 97.8398 60.7083 97.8398 60.6023L100.041 52.0693C100.093 51.9633 100.145 51.8573 100.303 51.8573L134.939 50.3203C135.044 50.3203 135.096 50.3733 135.149 50.4263C135.201 50.4793 135.201 50.5853 135.201 50.6913L133 59.2243C132.948 59.3303 132.843 59.4363 132.738 59.4363L98.1018 60.9733ZM100.512 52.4403L98.4686 60.3903L132.529 58.8533L134.572 50.9033L100.512 52.4403Z" fill="#732A09"/>
<path d="M67.3961 34.314L65.1953 42.847L98.1025 60.655L100.303 52.122L67.3961 34.314Z" fill="white"/>
<path d="M98.1008 60.9731C98.0484 60.9731 97.996 60.9731 97.996 60.9201L65.0888 43.0591C64.984 43.0061 64.9316 42.8471 64.9316 42.7411L67.1324 34.2081C67.1848 34.0491 67.342 33.9961 67.4468 33.9961H67.4992L100.459 51.9101C100.564 51.9631 100.616 52.1221 100.616 52.2281L98.4152 60.7611C98.4152 60.8671 98.3104 60.9201 98.258 60.9201C98.2056 60.9731 98.1532 60.9731 98.1008 60.9731ZM65.508 42.6881L97.9436 60.2311L99.9872 52.2811L67.604 34.7381L65.508 42.6881Z" fill="#732A09"/>
<path d="M112.879 51.592L110.678 60.125L119.795 59.701L121.996 51.168L112.879 51.592Z" fill="#1F93FF"/>
<path d="M110.678 60.3901C110.573 60.3901 110.521 60.3371 110.468 60.2841C110.416 60.2311 110.416 60.1251 110.416 60.0191L112.617 51.4861C112.669 51.3801 112.774 51.2741 112.879 51.2741L121.996 50.8501C122.154 50.8501 122.258 50.9561 122.258 51.1151C122.258 51.1681 122.258 51.1681 122.258 51.2211L120.058 59.7541C120.005 59.8601 119.953 59.9661 119.796 59.9661L110.678 60.3901ZM113.088 51.8571L111.045 59.8071L119.586 59.4361L121.63 51.4861L113.088 51.8571Z" fill="#732A09"/>
<path d="M86.521 54.4012L88.7742 45.8682L79.7614 40.9922L77.5605 49.5252L86.521 54.4012Z" fill="#1F93FF"/>
<path d="M86.5203 54.666C86.4679 54.666 86.4155 54.666 86.4155 54.613L77.4027 49.7901C77.2979 49.7371 77.2455 49.5781 77.2979 49.4721L79.4987 40.9391C79.5511 40.7801 79.7083 40.7271 79.8131 40.7271H79.8655L88.8783 45.603C88.9831 45.656 89.0355 45.815 89.0355 45.921L86.8347 54.4541C86.8347 54.5601 86.7299 54.613 86.6775 54.613C86.6251 54.666 86.5727 54.666 86.5203 54.666ZM77.8219 49.366L86.3107 53.9771L88.3543 46.0271L79.8655 41.416L77.8219 49.366Z" fill="#732A09"/>
<path d="M88.7745 45.8681L123.044 43.6421L113.822 38.2891L79.7617 40.9921L88.7745 45.8681Z" fill="white"/>
<path d="M88.7748 46.1332C88.7224 46.1332 88.67 46.1332 88.67 46.0802L79.6572 41.2042C79.5524 41.1512 79.5 41.0452 79.5 40.8862C79.5524 40.7802 79.6048 40.6742 79.762 40.6742L113.822 37.9712C113.874 37.9712 113.927 37.9712 113.979 38.0242L123.202 43.4302C123.306 43.4832 123.359 43.5892 123.306 43.7482C123.254 43.8542 123.202 43.9602 123.044 43.9602L88.7748 46.1332ZM80.7052 41.2042L88.8272 45.6032L122.154 43.4302L113.77 38.5542L80.7052 41.2042Z" fill="#732A09"/>
<path d="M112.879 51.592L81.0723 33.943L91.9191 33.625L121.997 51.168L112.879 51.592Z" fill="white"/>
<path d="M112.879 51.8571C112.827 51.8571 112.775 51.8571 112.775 51.8041L80.9677 34.1551C80.8629 34.1021 80.8105 33.9961 80.8105 33.8371C80.8629 33.7311 80.9677 33.6251 81.0725 33.6251L91.9717 33.3071C92.0241 33.3071 92.0765 33.3071 92.1289 33.3601L122.154 50.9561C122.259 51.0091 122.311 51.1151 122.259 51.2741C122.207 51.3801 122.154 51.4861 121.997 51.4861L112.879 51.8571ZM82.0681 34.1551L112.932 51.2741L121.054 50.9031L91.8669 33.8901L82.0681 34.1551Z" fill="#732A09"/>
<path d="M114.764 42.4761L115.026 42.1051C115.026 42.0521 115.812 38.9781 113.14 38.0771C110.468 37.1761 103.132 43.7481 102.922 43.9071C101.193 43.6951 99.4636 43.3241 97.7344 42.7941C103.865 35.1091 110.73 30.7101 116.232 33.8901C120.319 36.2751 119.271 40.1971 114.764 42.4761Z" fill="#1F93FF"/>
<path d="M102.975 44.1719C101.193 43.9069 99.4642 43.5359 97.735 43.0589C97.6302 43.0589 97.5778 42.9529 97.5254 42.8999C97.5254 42.7939 97.5254 42.7409 97.5778 42.6349C104.599 33.8899 111.307 30.7099 116.442 33.7309C118.171 34.7379 119.114 36.1689 119.062 37.7059C119.009 39.6139 117.437 41.4689 114.922 42.7939C114.765 42.8469 114.608 42.7939 114.555 42.6879C114.503 42.5819 114.503 42.4759 114.555 42.3699L114.817 42.0519C114.922 41.6809 115.341 39.1369 113.088 38.3949C110.887 37.6529 104.652 42.7939 103.132 44.1719C103.08 44.1719 103.027 44.1719 102.975 44.1719ZM98.259 42.6349C99.7786 43.0589 101.298 43.3769 102.87 43.5889C103.761 42.7939 110.573 36.8579 113.298 37.7589C115.656 38.5539 115.551 40.8859 115.394 41.7869C117.333 40.6209 118.485 39.0839 118.538 37.5999C118.59 36.2749 117.752 35.0559 116.18 34.1549C113.35 32.5119 107.324 31.5049 98.259 42.6349Z" fill="#732A09"/>
<path d="M115.026 42.1053L114.764 42.4763C111.987 43.8543 107.952 44.5963 102.922 43.9603C103.131 43.7483 110.52 37.2293 113.14 38.1303C115.76 39.0313 115.079 41.9993 115.026 42.1053Z" fill="#732A09"/>
<path d="M106.591 44.49C105.386 44.49 104.128 44.384 102.923 44.225C102.818 44.225 102.713 44.119 102.713 44.013C102.661 43.907 102.713 43.801 102.766 43.748C102.818 43.695 110.364 36.858 113.246 37.812C116.128 38.766 115.342 42.052 115.289 42.158C115.289 42.211 115.289 42.211 115.237 42.264L114.975 42.635C114.922 42.688 114.922 42.688 114.87 42.741C112.302 43.96 109.473 44.543 106.591 44.49ZM103.604 43.748C107.848 44.225 111.726 43.695 114.608 42.264L114.818 41.999C114.922 41.628 115.342 39.084 113.088 38.342C111.097 37.653 105.648 41.946 103.604 43.748Z" fill="#732A09"/>
<path d="M89.4556 35.7451L89.4032 35.2681C89.4032 35.2151 90.2416 32.1411 92.9664 32.6711C95.7436 33.2011 98.94 42.5821 99.0448 42.8471C100.669 43.4831 102.346 44.0131 104.075 44.4371C102.451 34.7381 98.6256 27.4771 92.2328 27.5301C87.674 27.5831 86.626 31.5581 89.4556 35.7451Z" fill="#1F93FF"/>
<path d="M104.075 44.7551H104.023C102.294 44.3841 100.617 43.8011 98.9401 43.1651C98.8877 43.1121 98.7829 43.0591 98.7829 43.0061C97.9445 40.5681 95.1149 33.4661 92.9141 32.9891C90.6085 32.5121 89.7701 34.9501 89.6653 35.3211L89.7177 35.7451C89.7177 35.8511 89.6653 36.0101 89.5605 36.0631C89.4557 36.1161 89.2985 36.0631 89.2461 35.9571C87.6217 33.5721 87.2025 31.1341 88.0933 29.4911C88.7745 28.1131 90.2941 27.3711 92.2853 27.3711H92.3901C98.2589 27.3711 102.556 33.4131 104.39 44.4901C104.39 44.5961 104.39 44.6491 104.285 44.7551C104.232 44.7021 104.128 44.7551 104.075 44.7551ZM99.2545 42.6881C100.722 43.2711 102.241 43.7481 103.761 44.1191C101.298 30.0211 95.5865 27.8481 92.3377 27.8481H92.2853C90.4513 27.8481 89.1937 28.4841 88.5649 29.7031C87.8837 31.0281 88.1457 32.9361 89.2461 34.8971C89.5605 34.0491 90.6085 31.9821 93.0713 32.4591C95.7961 32.9891 98.8877 41.5221 99.2545 42.6881Z" fill="#732A09"/>
<path d="M89.4023 35.268L89.4547 35.745C91.1839 38.342 94.3279 40.992 99.0439 42.9C98.9391 42.582 95.6903 33.254 92.9655 32.724C90.2407 32.194 89.4023 35.215 89.4023 35.268Z" fill="#732A09"/>
<path d="M99.0442 43.165C98.9918 43.165 98.9918 43.165 98.9394 43.165C94.6426 41.416 91.1842 38.872 89.2454 35.904C89.193 35.851 89.193 35.851 89.193 35.798L89.1406 35.321C89.1406 35.268 89.1406 35.268 89.1406 35.215C89.193 35.056 90.0838 31.876 93.0182 32.459C96.005 33.042 99.2538 42.688 99.3062 42.847C99.3586 42.953 99.3062 43.059 99.2538 43.112C99.2014 43.165 99.0966 43.165 99.0442 43.165ZM89.717 35.639C91.551 38.342 94.695 40.727 98.5726 42.37C97.577 39.561 94.957 33.36 92.9134 32.936C90.6078 32.459 89.7694 34.897 89.6646 35.268L89.717 35.639Z" fill="#732A09"/>
<path d="M99.3066 43.218C99.3066 43.218 103.603 42.317 105.228 45.603C106.852 48.889 111.673 51.592 114.136 51.009L119.585 49.79C119.585 49.79 113.612 49.525 111.411 46.822C109.21 44.119 104.127 40.78 99.3066 43.218Z" fill="#1F93FF"/>
<path d="M113.403 51.3273C110.626 51.3273 106.434 48.6243 105.019 45.7093C103.499 42.6353 99.4646 43.4833 99.4122 43.4833C99.255 43.5363 99.1502 43.4303 99.0978 43.3243C99.0454 43.2183 99.0978 43.0593 99.255 43.0063C104.233 40.5153 109.525 43.9073 111.674 46.6103C113.77 49.2073 119.586 49.5253 119.639 49.5253C119.796 49.5253 119.901 49.6313 119.901 49.7903C119.901 49.9493 119.796 50.0553 119.691 50.1083L114.241 51.3273C113.927 51.3273 113.665 51.3273 113.403 51.3273ZM101.141 42.8473C102.609 42.9533 104.495 43.4833 105.491 45.4443C107.115 48.6773 111.831 51.2213 114.084 50.6913L117.909 49.8433C115.918 49.5783 112.774 48.8363 111.255 46.9283C109.421 44.6493 105.281 41.8403 101.141 42.8473Z" fill="#732A09"/>
<path d="M103.918 44.119C103.918 44.119 100.617 41.2039 97.63 43.2709C94.6432 45.3379 89.0888 45.3379 87.2548 43.5359L83.1152 39.7729C83.1152 39.7729 88.46 42.529 91.6564 41.204C94.8528 39.932 100.879 39.614 103.918 44.119Z" fill="#1F93FF"/>
<path d="M91.7608 45.1261C89.822 45.1261 87.988 44.7021 87.0448 43.7481L82.9052 39.9851C82.8004 39.8791 82.8004 39.7201 82.8528 39.6141C82.9052 39.5081 83.0624 39.4551 83.2196 39.5081C83.272 39.5081 88.4596 42.1581 91.5512 40.9391C94.7476 39.6141 101.036 39.2961 104.127 43.9601C104.18 44.0661 104.18 44.2251 104.075 44.3311C103.97 44.4371 103.813 44.4371 103.708 44.3311C103.708 44.3311 100.512 41.5751 97.7344 43.4831C96.2148 44.5431 93.9092 45.1261 91.7608 45.1261ZM84.5296 40.7271L87.4116 43.3771C89.1408 44.9671 94.4856 45.1261 97.4724 43.0591C99.3064 41.7871 101.245 42.3171 102.555 42.9531C99.4112 39.9851 94.4856 40.4091 91.7608 41.4691C89.5076 42.3701 86.3636 41.4161 84.5296 40.7271Z" fill="#732A09"/>
<path d="M102.084 36.9112C100.46 37.8122 99.0449 42.9002 99.0449 42.9002L104.075 44.4902C104.075 44.4902 105.176 39.3492 103.551 36.8052L102.084 36.9112Z" fill="#1F93FF"/>
<path d="M104.076 44.755C104.023 44.755 104.023 44.755 103.971 44.755L98.9405 43.165C98.7833 43.112 98.7309 42.953 98.7833 42.847C98.8357 42.635 100.251 37.653 101.98 36.699C102.032 36.699 102.032 36.646 102.085 36.646L103.604 36.54C103.709 36.54 103.814 36.593 103.866 36.646C105.491 39.243 104.443 44.331 104.39 44.543C104.39 44.596 104.338 44.702 104.285 44.702C104.181 44.755 104.128 44.755 104.076 44.755ZM99.3597 42.688L103.866 44.119C104.076 43.006 104.6 39.19 103.447 37.07L102.189 37.176C100.984 37.865 99.8313 41.151 99.3597 42.688Z" fill="#732A09"/>
<path d="M141.855 48.0411L153.855 47.6701C154.221 47.6701 154.221 47.1401 153.855 47.1401L141.855 47.5111C141.541 47.5111 141.541 48.0411 141.855 48.0411Z" fill="#732A09"/>
<path d="M137.715 39.1372C141.069 37.1232 144.318 35.0032 147.514 32.6712C147.776 32.4592 147.514 31.9822 147.252 32.1942C144.056 34.4732 140.807 36.6462 137.453 38.6602C137.349 38.7132 137.296 38.9252 137.349 39.0312C137.453 39.1902 137.611 39.2432 137.715 39.1372Z" fill="#732A09"/>
<path d="M129.333 32.5651C130.066 29.3321 130.695 26.0991 131.324 22.8131C131.376 22.4421 130.852 22.3361 130.8 22.6541C130.171 25.9401 129.542 29.1731 128.809 32.4061C128.704 32.7771 129.228 32.9361 129.333 32.5651Z" fill="#732A09"/>
<path d="M131.847 218.966L142.956 226.333L148.405 245.784H180.998L166.798 205.875H109.105V245.784H138.292V223.259" fill="white"/>
<path d="M180.999 246.049H148.458C148.353 246.049 148.249 245.943 148.196 245.837L142.747 226.492L138.555 223.736V245.784C138.555 245.943 138.45 246.049 138.293 246.049H109.106C108.949 246.049 108.844 245.943 108.844 245.784V205.875C108.844 205.716 108.949 205.61 109.106 205.61H166.851C166.955 205.61 167.06 205.663 167.113 205.769L181.261 245.678C181.313 245.784 181.261 245.837 181.208 245.943C181.156 246.049 181.051 246.102 180.999 246.049ZM148.615 245.519H180.579L166.641 206.14H109.368V245.519H138.031V223.365L131.69 219.178C131.585 219.125 131.533 218.913 131.585 218.807C131.638 218.701 131.847 218.648 131.952 218.701L143.113 226.068C143.166 226.121 143.218 226.174 143.218 226.227L148.615 245.519Z" fill="#732A09"/>
<path d="M82.7474 148.158L82.4854 149.695C82.433 150.066 82.2234 150.437 81.909 150.649L70.9574 157.645C70.4334 158.016 69.6998 157.91 69.2806 157.433L50.2594 137.187C49.9974 136.922 49.8926 136.604 49.8926 136.233V136.18L49.945 135.862L50.1546 134.643L50.7834 134.908L81.1754 147.469L82.7474 148.158Z" fill="#732A09"/>
<path d="M70.2242 158.069C69.805 158.069 69.3858 157.91 69.0714 157.592L50.0502 137.346C49.7358 137.028 49.5786 136.604 49.631 136.18V136.127L49.8406 134.59C49.8406 134.484 49.893 134.431 49.9978 134.378C50.0502 134.325 50.155 134.325 50.2598 134.378L50.8886 134.643L82.8526 147.84C82.9574 147.893 83.0098 147.999 83.0098 148.158L82.7478 149.695V149.748C82.6954 150.225 82.4334 150.596 82.0142 150.861L71.0626 157.804C70.853 158.016 70.5386 158.069 70.2242 158.069ZM50.3646 135.014L50.155 136.18C50.155 136.445 50.2598 136.763 50.4694 136.922L69.4906 157.168C69.8574 157.539 70.3814 157.592 70.8006 157.327L81.7522 150.331C82.0142 150.172 82.1714 149.907 82.2238 149.589V149.536L82.4334 148.264L50.3646 135.014Z" fill="#732A09"/>
<path d="M71.22 156.055L82.1716 149.059C82.8004 148.635 82.9576 147.84 82.5908 147.204C82.5384 147.151 82.486 147.045 82.4336 146.992L63.4124 126.746C62.9932 126.269 62.2596 126.216 61.7356 126.534L50.784 133.53C50.1552 133.954 49.998 134.749 50.3648 135.385C50.4172 135.438 50.4696 135.544 50.522 135.597L69.5432 155.843C69.9624 156.32 70.6436 156.373 71.22 156.055Z" fill="white"/>
<path d="M70.4854 156.532C70.0662 156.532 69.6471 156.373 69.3327 156.055L50.3115 135.809C49.6827 135.173 49.7351 134.113 50.3639 133.53C50.4163 133.477 50.5211 133.371 50.6259 133.318L61.5775 126.322C62.2063 125.898 63.0447 126.004 63.6211 126.587L82.6423 146.833C83.2711 147.469 83.2187 148.529 82.5899 149.112C82.5375 149.165 82.4327 149.271 82.3279 149.324L71.3239 156.267C71.1143 156.426 70.7998 156.532 70.4854 156.532ZM62.4159 126.587C62.2063 126.587 62.0491 126.64 61.8919 126.746L50.9403 133.742C50.6783 133.901 50.4687 134.219 50.4687 134.537C50.4163 134.855 50.5211 135.173 50.7831 135.438L69.8043 155.684C70.1711 156.055 70.6951 156.108 71.1667 155.843L82.1183 148.847C82.3803 148.688 82.5375 148.37 82.5899 148.052C82.6423 147.734 82.5375 147.416 82.3279 147.204L63.3066 126.958C62.9922 126.693 62.6779 126.587 62.4159 126.587Z" fill="#732A09"/>
<path d="M52.1992 134.749L62.3124 128.23L80.7048 147.84L70.5392 154.306L52.1992 134.749Z" fill="white"/>
<path d="M70.5394 154.571C70.487 154.571 70.3822 154.518 70.3298 154.465L51.9374 134.908C51.885 134.855 51.8326 134.749 51.885 134.696C51.885 134.59 51.9374 134.537 51.9898 134.484L62.103 128.018C62.2078 127.965 62.365 127.965 62.4698 128.071L80.8622 147.628C80.9146 147.681 80.967 147.787 80.9146 147.84C80.9146 147.946 80.8622 147.999 80.8098 148.052L70.6966 154.518C70.6442 154.571 70.5918 154.571 70.5394 154.571ZM52.6186 134.802L70.5918 153.935L80.2858 147.734L62.3126 128.601L52.6186 134.802Z" fill="#732A09"/>
<path d="M58.016 148.211C56.0248 146.886 55.1864 143.971 56.444 142.116C57.7016 140.261 59.6404 141.003 59.326 144.024C59.0116 147.045 58.016 148.211 58.016 148.211Z" fill="white"/>
<path d="M58.0144 148.476C57.962 148.476 57.9096 148.476 57.8572 148.423C56.7044 147.628 55.9184 146.409 55.6564 145.084C55.3944 144.024 55.604 142.858 56.1804 141.957C56.8092 141.056 57.6476 140.632 58.3812 140.897C59.1148 141.162 59.7436 142.116 59.534 144.024C59.2196 147.098 58.224 148.317 58.1716 148.37C58.1716 148.423 58.0668 148.476 58.0144 148.476ZM57.962 141.321C57.438 141.374 56.914 141.745 56.652 142.222C56.128 143.017 55.9708 144.024 56.1804 144.925C56.39 146.038 57.0188 147.098 57.962 147.787C58.5908 146.621 58.9576 145.296 59.0624 143.918C59.2196 142.275 58.6956 141.533 58.224 141.321C58.1192 141.374 58.0668 141.321 57.962 141.321Z" fill="#732A09"/>
<path d="M60.6865 150.808C57.9617 150.437 56.9661 149.006 57.1233 147.363C57.2805 145.72 58.8525 142.593 59.9005 142.805C60.9485 143.017 61.0009 146.568 61.0009 146.568L60.6865 150.808Z" fill="white"/>
<path d="M60.687 151.073C58.067 150.755 56.7046 149.324 56.8618 147.363C56.9666 145.985 58.067 143.547 59.115 142.805C59.3246 142.593 59.639 142.487 59.9534 142.54C61.1586 142.805 61.2634 145.932 61.2634 146.568L60.8966 150.861C60.8966 150.914 60.8442 151.02 60.7918 151.073C60.7918 151.02 60.7394 151.073 60.687 151.073ZM59.7962 143.07C59.6914 143.07 59.5342 143.123 59.4294 143.229C58.5386 143.865 57.4906 146.144 57.3858 147.416C57.2286 149.059 58.329 150.172 60.425 150.49L60.7394 146.515C60.7394 145.19 60.425 143.229 59.8486 143.07H59.7962Z" fill="#732A09"/>
<path d="M63.2022 153.405C59.7962 152.875 59.0625 149.642 59.9009 146.992C60.7393 144.342 61.8398 144.024 62.3114 144.183C62.8354 144.342 63.4642 147.787 63.4642 147.787L63.2022 153.405Z" fill="white"/>
<path d="M63.2025 153.723C61.8401 153.564 60.6873 152.822 60.0061 151.709C59.2201 150.225 59.0629 148.476 59.6393 146.939C60.7397 143.6 62.1545 143.865 62.4165 143.971C62.9405 144.13 63.4645 146.144 63.7789 147.787V147.84L63.5169 153.458C63.5169 153.511 63.4645 153.617 63.4121 153.67C63.3597 153.67 63.3073 153.723 63.2025 153.723ZM62.1021 144.448C61.6305 144.448 60.8445 144.978 60.1633 147.098C59.6393 148.529 59.7441 150.066 60.4777 151.444C61.0541 152.345 61.9449 152.928 62.9929 153.14L63.2549 147.84C62.9929 146.356 62.5213 144.66 62.2593 144.501C62.1545 144.448 62.1545 144.448 62.1021 144.448Z" fill="#732A09"/>
<path d="M66.8708 154.783C66.8708 154.783 62.7836 156.956 62.312 153.193C61.788 149.43 62.7836 145.773 64.146 145.72C65.5084 145.667 65.2988 153.14 65.2988 153.14L66.8708 154.783Z" fill="white"/>
<path d="M64.5656 155.684C63.2556 155.737 62.1028 154.73 62.0504 153.352C62.0504 153.299 62.0504 153.246 62.0504 153.193C61.6836 150.278 62.1028 147.204 63.1508 145.985C63.4128 145.667 63.7796 145.455 64.1464 145.402C64.356 145.402 64.5656 145.455 64.6704 145.614C65.7184 146.621 65.6136 151.974 65.6136 152.981L67.0808 154.571C67.1332 154.624 67.1856 154.73 67.1332 154.783C67.1332 154.889 67.0808 154.942 66.976 154.995C66.2424 155.472 65.404 155.684 64.5656 155.684ZM64.1464 145.985C63.8844 146.038 63.6748 146.144 63.5176 146.356C62.7316 147.31 62.1552 150.013 62.5744 153.14C62.5744 153.882 62.9936 154.518 63.57 154.942C64.4608 155.419 65.7708 154.995 66.3996 154.73L65.0896 153.352C65.0372 153.299 65.0372 153.246 65.0372 153.14C65.0896 150.755 64.9848 146.727 64.2512 146.038C64.2512 146.038 64.1988 145.985 64.1464 145.985Z" fill="#732A09"/>
<path d="M85.1063 153.14C83.4819 151.497 84.4251 146.515 81.9099 142.911C79.3947 139.307 75.5695 136.392 73.3687 136.445C71.1155 136.498 72.7399 140.261 74.8359 141.533C76.1983 142.328 77.6131 143.017 79.1327 143.441L82.0147 146.568C82.5911 147.204 82.8531 148.105 82.7483 148.953C82.6435 149.748 82.1195 150.49 81.4383 150.914L72.5303 156.479L75.6743 160.083L85.1063 153.14Z" fill="white"/>
<path d="M75.7263 160.454C75.6215 160.454 75.5691 160.401 75.5167 160.348L72.3727 156.744C72.3203 156.691 72.3203 156.585 72.3203 156.532C72.3203 156.426 72.3727 156.373 72.4251 156.32L81.3331 150.755C82.5383 150.013 82.9051 148.423 82.1715 147.204C82.0667 147.045 81.9619 146.939 81.8571 146.78L78.9751 143.706C77.4555 143.229 76.0407 142.593 74.6783 141.745C73.0539 140.738 71.6915 138.353 72.0583 137.081C72.2155 136.498 72.7395 136.127 73.3683 136.127C75.6739 136.074 79.5515 138.936 82.1715 142.699C83.5863 144.713 83.9007 147.098 84.2151 149.165C84.4247 150.808 84.6343 152.186 85.3155 152.875C85.3679 152.928 85.4203 153.034 85.3679 153.087C85.3679 153.193 85.3155 153.246 85.2631 153.299L75.8311 160.348C75.8311 160.454 75.7787 160.454 75.7263 160.454ZM73.0015 156.638L75.7787 159.818L84.7391 153.14C84.1103 152.292 83.9007 150.914 83.6387 149.324C83.3767 147.31 83.0099 144.978 81.6999 143.123C79.2371 139.625 75.5167 136.816 73.4207 136.816H73.3683C72.9491 136.816 72.6871 137.028 72.5823 137.346C72.3203 138.353 73.4207 140.473 74.9927 141.427C76.3027 142.222 77.7699 142.858 79.2371 143.335C79.2895 143.335 79.3419 143.388 79.3419 143.388L82.2239 146.515C82.9051 147.204 83.1671 148.211 83.0099 149.165C82.8527 150.066 82.3287 150.861 81.5951 151.338L73.0015 156.638Z" fill="#732A09"/>
<path d="M190.849 147.098C189.172 144.024 189.958 143.123 188.439 139.572C187.862 138.035 186.814 136.71 185.452 135.809C184.98 135.491 184.823 134.855 185.085 134.378C185.138 134.325 185.19 134.219 185.242 134.166C186.028 133.371 187.338 132.735 188.963 134.007C190.587 135.226 191.897 136.763 192.84 138.565C192.84 138.565 195.041 130.191 196.666 126.852C198.29 123.513 200.334 123.725 199.81 127.329C199.286 130.403 198.604 133.371 197.714 136.339C197.714 136.339 201.906 130.456 203.897 128.23C205.94 126.004 208.246 126.534 206.202 129.555C204.159 132.629 201.382 137.823 201.382 137.823L202.534 138.247C202.534 138.247 206.412 134.272 209.294 132.47C212.176 130.668 212.595 133.689 209.713 136.392C207.984 137.982 206.36 139.625 204.84 141.374C204.84 141.374 208.822 140.632 211.547 141.215C214.272 141.745 211.809 144.183 209.242 144.289C207.774 144.342 206.36 144.713 205.05 145.455C205.05 145.455 203.897 151.179 198.814 151.497C198.814 151.444 192.945 150.808 190.849 147.098Z" fill="white"/>
<path d="M198.814 151.709C198.5 151.656 192.788 151.02 190.587 147.257C189.906 146.038 189.434 144.713 189.225 143.335C189.015 142.063 188.648 140.844 188.124 139.678C187.548 138.194 186.552 136.922 185.242 136.074C184.876 135.862 184.666 135.491 184.614 135.067C184.561 134.643 184.718 134.272 184.98 133.954C186.238 132.735 187.653 132.682 189.068 133.795C190.535 134.908 191.74 136.286 192.736 137.823C193.26 135.756 195.041 129.502 196.404 126.693C197.242 124.891 198.342 123.937 199.181 124.202C200.072 124.467 200.281 125.58 200.072 127.329C199.652 129.873 199.076 132.417 198.395 134.855C199.757 133 202.272 129.555 203.687 127.965C204.84 126.693 206.202 126.163 206.884 126.746C207.198 126.958 207.722 127.7 206.412 129.661C204.683 132.258 202.377 136.445 201.801 137.611L202.534 137.876C203.216 137.187 206.622 133.795 209.242 132.152C210.866 131.145 211.547 131.675 211.809 131.993C212.438 132.841 211.914 134.749 209.975 136.551C207.932 138.406 206.412 140.102 205.626 140.95C206.936 140.738 209.608 140.473 211.652 140.897C212.91 141.162 213.067 141.798 213.067 142.169C212.962 143.282 211.128 144.448 209.294 144.501C207.932 144.554 206.569 144.925 205.364 145.561C205.102 146.409 203.635 151.444 198.814 151.709ZM191.059 146.992C193.102 150.49 198.762 151.179 198.814 151.179C203.582 150.914 204.735 145.614 204.788 145.402C204.788 145.349 204.84 145.243 204.892 145.243C206.202 144.501 207.67 144.077 209.189 144.077C210.918 144.024 212.386 142.911 212.438 142.222C212.49 141.798 211.862 141.639 211.495 141.533C208.875 141.003 204.945 141.692 204.892 141.745C204.735 141.798 204.578 141.692 204.578 141.533C204.578 141.427 204.578 141.374 204.63 141.321C206.15 139.572 207.827 137.876 209.504 136.286C211.285 134.643 211.704 133 211.285 132.47C211.023 132.099 210.342 132.205 209.451 132.788C206.622 134.537 202.744 138.512 202.744 138.565C202.692 138.618 202.534 138.671 202.43 138.618L201.277 138.194C201.224 138.194 201.12 138.088 201.12 138.035C201.067 137.982 201.067 137.876 201.12 137.823C201.172 137.77 203.897 132.576 205.94 129.555C206.726 128.336 206.831 127.594 206.517 127.329C206.255 127.064 205.154 127.329 204.054 128.495C202.063 130.721 197.923 136.551 197.871 136.604C197.766 136.71 197.609 136.763 197.504 136.657C197.399 136.604 197.347 136.445 197.399 136.339C198.29 133.371 198.971 130.403 199.495 127.382C199.705 125.686 199.39 124.944 199.024 124.838C198.552 124.679 197.714 125.315 196.875 127.064C195.303 130.35 193.102 138.671 193.05 138.777C192.998 138.883 192.945 138.989 192.84 138.989C192.736 138.989 192.631 138.936 192.578 138.83C191.635 137.081 190.325 135.597 188.753 134.378C187.6 133.424 186.448 133.477 185.4 134.484C185.242 134.643 185.138 134.855 185.19 135.12C185.19 135.385 185.347 135.597 185.557 135.703C186.972 136.604 188.072 137.982 188.648 139.572C189.172 140.791 189.539 142.063 189.749 143.335C189.958 144.554 190.378 145.826 191.059 146.992Z" fill="#732A09"/>
<path d="M205.102 142.54C204.997 142.54 204.892 142.487 204.84 142.381C202.639 138.194 199.443 136.339 195.094 136.604C194.937 136.604 194.832 136.498 194.779 136.339C194.779 136.18 194.884 136.074 195.041 136.074C199.548 135.756 203.006 137.823 205.259 142.116C205.312 142.275 205.259 142.434 205.154 142.487C205.154 142.54 205.154 142.54 205.102 142.54Z" fill="#732A09"/>
<path d="M197.346 140.42C197.294 140.42 197.241 140.42 197.189 140.367C195.931 139.413 194.412 138.883 192.84 138.883C192.683 138.883 192.578 138.777 192.525 138.618C192.525 138.459 192.63 138.353 192.787 138.3C194.517 138.3 196.141 138.83 197.503 139.89C197.608 139.996 197.661 140.155 197.556 140.261C197.503 140.367 197.399 140.42 197.346 140.42Z" fill="#732A09"/>
<path d="M85.5251 151.656C85.5251 151.656 87.3591 150.49 90.0839 152.928C92.8087 155.366 100.249 162.998 100.249 162.998C100.249 162.998 107.009 150.967 114.293 144.13C126.869 132.311 157.208 133.848 163.182 141.374C169.155 148.9 176.072 164.535 176.072 164.535L186.395 148.264C186.395 148.264 188.072 145.296 192.84 146.939C197.609 148.582 203.373 151.073 203.373 153.617C203.373 156.108 190.849 184.251 182.098 191.406C173.347 198.561 167.322 191.406 167.322 191.406L168.527 207.253C168.527 207.253 129.331 213.454 106.537 207.253L106.38 191.989C106.38 191.989 99.4635 193.526 90.0315 183.88C82.8527 176.513 76.3027 167.556 73.5779 163.74C72.8443 162.68 73.0015 161.249 73.9447 160.401L75.0975 159.394L85.5251 151.656Z" fill="#1F93FF"/>
<path d="M106.223 190.611C106.066 190.611 105.961 190.452 105.961 190.346C105.961 190.134 107.952 167.98 110.101 157.751C110.153 157.592 110.258 157.486 110.415 157.539C110.572 157.592 110.677 157.698 110.625 157.857C108.476 168.086 106.537 190.187 106.485 190.399C106.537 190.505 106.433 190.611 106.223 190.611Z" fill="#732A09"/>
<path d="M104.074 167.132C104.021 167.132 103.917 167.079 103.864 167.079L100.877 164.164C100.773 164.058 100.773 163.899 100.877 163.793C100.982 163.687 101.139 163.687 101.244 163.793L104.231 166.708C104.336 166.814 104.336 166.973 104.231 167.079C104.231 167.079 104.126 167.132 104.074 167.132Z" fill="#732A09"/>
<path d="M166.273 189.604C166.168 189.604 166.115 189.551 166.063 189.498C155.793 177.573 152.282 163.581 153.33 154.942C153.33 154.783 153.487 154.677 153.644 154.677C153.801 154.677 153.906 154.836 153.906 154.995C152.858 163.475 156.369 177.308 166.482 189.127C166.587 189.233 166.587 189.392 166.482 189.498C166.43 189.551 166.325 189.604 166.273 189.604Z" fill="#732A09"/>
<path d="M178.43 169.994C178.325 169.994 178.22 169.941 178.168 169.835L175.81 164.694C175.757 164.535 175.81 164.376 175.914 164.323C176.072 164.27 176.229 164.323 176.281 164.429L178.639 169.57C178.692 169.729 178.639 169.888 178.534 169.941C178.534 169.994 178.482 169.994 178.43 169.994Z" fill="#732A09"/>
<path d="M139.968 126.269C140.44 130.668 140.649 135.067 140.545 139.466C140.545 140.526 139.759 141.427 138.763 141.639C137.086 142.01 134.414 142.222 132.003 140.95C131.217 140.526 130.693 139.678 130.746 138.724L131.06 133.583L139.968 126.269Z" fill="white"/>
<path d="M136.196 142.169C134.676 142.169 133.209 141.851 131.899 141.162C131.008 140.685 130.484 139.731 130.537 138.724L130.851 133.583C130.851 133.53 130.904 133.424 130.956 133.424L139.812 126.11C139.916 126.004 140.074 126.057 140.178 126.163C140.231 126.216 140.231 126.269 140.231 126.269C140.702 130.668 140.86 135.067 140.807 139.466C140.807 140.632 139.969 141.639 138.816 141.904C137.925 142.063 137.087 142.169 136.196 142.169ZM131.323 133.689L131.008 138.724C130.956 139.519 131.375 140.314 132.109 140.685C134.414 141.904 136.982 141.745 138.711 141.374C139.602 141.162 140.283 140.367 140.283 139.466C140.336 135.226 140.178 130.986 139.759 126.799L131.323 133.689Z" fill="#732A09"/>
<path d="M122.938 112.966C121.995 109.68 121.471 106.871 121.681 106.023C121.89 105.175 128.755 96.165 135.986 96.165C143.217 96.165 148.667 98.02 151.287 101.2C151.287 101.2 158.832 103.32 157.679 114.503C156.527 125.686 152.963 131.198 150.815 131.993C148.667 132.788 138.711 131.993 138.711 131.993L122.938 112.966Z" fill="white"/>
<path d="M146.676 132.629C143.165 132.629 138.973 132.311 138.659 132.258C138.607 132.258 138.502 132.205 138.502 132.152L122.729 113.125C122.729 113.072 122.677 113.072 122.677 113.019C121.891 110.316 121.157 106.977 121.419 105.917C121.629 105.069 128.598 95.8999 135.987 95.8999C143.218 95.8999 148.667 97.7019 151.445 100.988C152.283 101.253 159.043 103.903 157.942 114.556C156.737 126.11 153.069 131.463 150.868 132.258C150.135 132.523 148.51 132.629 146.676 132.629ZM138.816 131.728C139.917 131.781 148.772 132.417 150.711 131.728C152.65 131.039 156.265 125.686 157.418 114.45C158.519 103.638 151.287 101.412 151.235 101.412C151.183 101.412 151.13 101.359 151.13 101.306C148.563 98.1789 143.008 96.3239 136.039 96.3239C128.965 96.3239 122.153 105.122 121.943 105.97C121.734 106.765 122.258 109.468 123.201 112.754L138.816 131.728Z" fill="#732A09"/>
<path d="M126.083 106.924C126.083 106.924 116.546 121.605 120.843 129.555C124.563 136.498 136.51 138.883 145.471 129.131C145.471 129.131 147.672 130.88 150.082 130.191C152.492 129.502 153.802 122.612 150.082 122.506L146.781 126.481L144.947 125.05C144.947 125.05 147.2 119.485 147.2 116.676C147.2 116.676 144.161 110.952 137.873 108.461L141.436 103.585L134.519 107.56L130.904 106.924L133.471 102.26L128.284 106.977L126.083 106.924Z" fill="white"/>
<path d="M131.952 135.915C131.323 135.915 130.694 135.862 130.065 135.809C125.873 135.279 122.31 133 120.581 129.714C118.799 126.322 119.114 121.446 121.629 115.192C122.782 112.277 124.249 109.468 125.873 106.818C125.926 106.765 126.031 106.712 126.083 106.712L128.127 106.765L133.262 102.101C133.367 101.995 133.471 101.995 133.576 102.101C133.681 102.207 133.681 102.313 133.629 102.419L131.218 106.765L134.362 107.295L141.227 103.373C141.331 103.32 141.489 103.32 141.541 103.426C141.593 103.532 141.593 103.638 141.541 103.744L138.187 108.355C144.266 110.899 147.305 116.517 147.305 116.57C147.305 116.623 147.357 116.676 147.357 116.676C147.357 119.22 145.576 123.937 145.157 124.944L146.676 126.11L149.82 122.294C149.873 122.241 149.925 122.188 150.03 122.188C151.445 122.241 152.335 123.248 152.545 124.838C152.807 126.958 151.759 129.873 150.082 130.403C147.986 130.986 146.047 129.873 145.419 129.449C141.593 133.636 136.773 135.915 131.952 135.915ZM126.188 107.189C125.297 108.62 117.07 122.082 121 129.449C122.677 132.576 126.083 134.749 130.118 135.279C135.41 135.968 140.912 133.636 145.209 128.972C145.314 128.866 145.471 128.866 145.576 128.919C145.576 128.919 147.724 130.562 149.925 129.926C151.183 129.555 152.283 127.011 151.969 124.944C151.864 124.149 151.497 122.877 150.082 122.718L146.886 126.587C146.781 126.693 146.624 126.693 146.519 126.64L144.685 125.209C144.58 125.156 144.58 124.997 144.58 124.891C144.58 124.838 146.781 119.432 146.833 116.676C146.467 116.093 143.427 110.899 137.663 108.62C137.611 108.567 137.559 108.514 137.506 108.461C137.506 108.408 137.506 108.302 137.559 108.249L140.388 104.38L134.519 107.719C134.467 107.772 134.415 107.772 134.362 107.772L130.799 107.136C130.694 107.136 130.642 107.083 130.589 106.977C130.537 106.924 130.537 106.818 130.589 106.712L132.423 103.426L128.389 107.083C128.336 107.136 128.284 107.136 128.231 107.136L126.188 107.189Z" fill="#732A09"/>
<path d="M135.253 115.722C135.724 115.51 136.248 115.351 136.772 115.245C137.296 115.139 137.873 115.139 138.397 115.245C138.973 115.351 139.497 115.616 139.916 116.04C140.283 116.464 140.545 117.047 140.545 117.63C140.545 117.789 140.441 117.895 140.336 117.895C140.231 117.895 140.126 117.842 140.074 117.736V117.683C139.917 117.312 139.654 116.941 139.34 116.623C139.026 116.358 138.606 116.199 138.187 116.093C137.716 115.987 137.296 115.987 136.825 115.987C136.353 115.987 135.882 116.04 135.41 116.093C135.253 116.093 135.148 116.04 135.096 115.881C135.096 115.881 135.2 115.775 135.253 115.722Z" fill="#732A09"/>
<path d="M124.721 110.422C125.14 110.21 125.664 110.104 126.136 110.104C126.66 110.104 127.131 110.21 127.603 110.422C128.075 110.634 128.441 110.952 128.756 111.376C128.913 111.588 129.018 111.747 129.175 112.012C129.28 112.224 129.332 112.436 129.437 112.701C129.489 112.86 129.385 112.966 129.28 113.019C129.175 113.072 129.07 113.019 129.018 112.966V112.86C128.861 112.701 128.756 112.489 128.651 112.33C128.546 112.171 128.389 112.012 128.232 111.853C127.97 111.588 127.655 111.323 127.289 111.164C126.922 111.005 126.555 110.899 126.188 110.846C125.769 110.793 125.402 110.793 124.983 110.846H124.931C124.773 110.899 124.616 110.793 124.616 110.634C124.564 110.528 124.616 110.422 124.721 110.422Z" fill="#732A09"/>
<path d="M126.344 121.128C126.134 121.128 125.977 121.128 125.768 121.075C124.877 120.916 124.3 120.015 124.51 119.114V119.061C124.562 118.584 124.824 118.16 125.244 117.948C125.977 117.524 127.078 117.683 127.549 117.842C128.178 116.199 128.597 114.503 128.964 112.807C129.016 112.648 129.121 112.542 129.278 112.595C129.436 112.648 129.54 112.754 129.488 112.913C129.121 114.715 128.65 116.517 127.968 118.266C127.916 118.372 127.759 118.478 127.654 118.425C127.654 118.425 126.292 118.001 125.558 118.425C125.296 118.584 125.139 118.902 125.086 119.22C124.929 119.856 125.296 120.439 125.872 120.651C125.925 120.651 125.925 120.651 125.977 120.651C126.816 120.863 127.706 120.439 128.021 119.591C128.073 119.432 128.23 119.379 128.335 119.432C128.492 119.485 128.545 119.644 128.492 119.75C128.126 120.545 127.287 121.128 126.344 121.128Z" fill="#732A09"/>
<path d="M137.297 119.538C136.93 120.333 136.144 120.81 135.567 120.545C134.991 120.28 134.886 119.379 135.253 118.584C135.358 118.372 135.515 118.16 135.725 117.948L136.458 118.955L136.563 117.524C136.72 117.524 136.877 117.524 136.982 117.577C137.611 117.842 137.716 118.69 137.297 119.538Z" fill="#732A09"/>
<path d="M125.873 115.033C125.506 115.881 124.72 116.305 124.144 116.04C123.567 115.775 123.462 114.874 123.829 114.079C123.934 113.867 124.091 113.655 124.301 113.443L125.034 114.45L125.139 113.019C125.296 113.019 125.454 113.019 125.558 113.072C126.082 113.337 126.24 114.185 125.873 115.033Z" fill="#732A09"/>
<path d="M128.86 126.746C128.808 126.746 128.703 126.746 128.65 126.746C127.707 126.64 126.816 125.951 126.188 124.732C126.135 124.626 126.135 124.467 126.292 124.361C126.397 124.308 126.554 124.308 126.659 124.467C126.659 124.467 126.659 124.467 126.659 124.52C127.183 125.58 127.969 126.216 128.703 126.269C129.489 126.322 130.17 125.951 130.642 125.262C130.746 125.156 130.904 125.156 131.008 125.209C131.113 125.315 131.113 125.474 131.061 125.58C130.537 126.269 129.751 126.693 128.86 126.746Z" fill="#732A09"/>
<path d="M150.135 128.389C150.082 128.389 150.03 128.389 149.978 128.336C149.873 128.283 149.82 128.124 149.873 127.965C150.397 127.064 150.973 125.368 149.82 124.52C149.716 124.414 149.663 124.255 149.768 124.149C149.873 124.043 150.03 123.99 150.135 124.096C151.602 125.156 150.973 127.223 150.344 128.23C150.344 128.336 150.24 128.389 150.135 128.389Z" fill="#732A09"/>
<path d="M126.083 106.924C125.401 106.871 124.72 106.977 124.039 107.189L126.083 106.924Z" fill="white"/>
<path d="M124.039 107.454C123.882 107.507 123.777 107.401 123.725 107.242C123.672 107.083 123.777 106.977 123.934 106.924C124.615 106.712 125.349 106.606 126.083 106.659C126.24 106.659 126.345 106.765 126.345 106.924C126.345 107.083 126.24 107.189 126.083 107.189C125.454 107.136 124.773 107.242 124.144 107.454C124.091 107.454 124.091 107.454 124.039 107.454Z" fill="#732A09"/>
<path d="M147.146 116.676C148.037 117.895 148.771 119.22 149.347 120.598L147.146 116.676Z" fill="white"/>
<path d="M149.296 120.863C149.191 120.863 149.086 120.81 149.034 120.704C148.457 119.326 147.776 118.054 146.885 116.835C146.78 116.729 146.833 116.57 146.938 116.464C147.042 116.358 147.2 116.411 147.304 116.517C148.195 117.736 148.929 119.061 149.505 120.492C149.558 120.651 149.505 120.757 149.348 120.81C149.348 120.863 149.348 120.863 149.296 120.863Z" fill="#732A09"/>
<path d="M56.4964 99.0269C52.1472 106.553 49.9464 115.192 50.1036 123.937C50.1036 124.308 50.6276 124.308 50.6276 123.937C50.5228 117.206 51.7804 110.528 54.4528 104.327C55.1864 102.631 56.0248 100.935 56.968 99.3449C57.0204 99.2389 57.0204 99.0269 56.8632 98.9739C56.706 98.8149 56.5488 98.8679 56.4964 99.0269Z" fill="#732A09"/>
<path d="M64.5646 102.26C62.8354 106.712 61.7874 111.429 61.473 116.199C61.3682 117.577 61.3158 118.955 61.3682 120.28C61.3682 120.439 61.473 120.545 61.6302 120.545C61.7874 120.545 61.8922 120.439 61.8922 120.28C61.8398 115.51 62.4686 110.793 63.7786 106.235C64.1454 104.963 64.5646 103.691 65.0886 102.366C65.1934 102.048 64.6694 101.889 64.5646 102.26Z" fill="#0099CE"/>
<path d="M71.4289 110.21C70.0665 113.072 69.4901 116.252 69.8045 119.379C69.8569 119.75 70.3809 119.75 70.3285 119.379C70.0141 116.305 70.5381 113.231 71.9005 110.475C72.0577 110.157 71.5861 109.892 71.4289 110.21Z" fill="#732A09"/>
</svg>
