<svg width="32" height="33" viewBox="0 0 32 33" fill="none" xmlns="http://www.w3.org/2000/svg">
<path d="M8.7701 21.0673C6.88374 22.1905 1.93782 24.484 4.95022 27.354C6.42175 28.7558 8.06066 29.7585 10.1212 29.7585H21.8788C23.9393 29.7585 25.5783 28.7558 27.0497 27.354C30.0621 24.484 25.1163 22.1905 23.2299 21.0673C18.8064 18.4333 13.1936 18.4333 8.7701 21.0673Z" stroke="#575757" stroke-width="1.5" stroke-linecap="round" stroke-linejoin="round"/>
<path d="M22 9.0918C22 12.4055 19.3137 15.0918 16 15.0918C12.6863 15.0918 10 12.4055 10 9.0918C10 5.77809 12.6863 3.0918 16 3.0918C19.3137 3.0918 22 5.77809 22 9.0918Z" stroke="#575757" stroke-width="1.5"/>
</svg>
